<?xml version="1.0" encoding="utf-8"?>
<!-- Generator: Adobe Illustrator 19.0.0, SVG Export Plug-In . SVG Version: 6.00 Build 0)  -->
<svg version="1.1" id="Layer_1" xmlns="http://www.w3.org/2000/svg" xmlns:xlink="http://www.w3.org/1999/xlink" x="0px" y="0px"
	 width="1400px" height="980px" viewBox="0 0 1400 980" style="enable-background:new 0 0 1400 980;" xml:space="preserve">
<style type="text/css">
	.st0{clip-path:url(#XMLID_772_);}
	.st1{fill:url(#XMLID_853_);}
	.st2{fill:#84A1C1;}
	.st3{fill:#F7B794;}
	.st4{fill:#AD7B64;}
	.st5{fill:#EA9D71;}
	.st6{fill:#F7DACB;}
	.st7{fill:#6E2711;}
	.st8{fill:#CE6F43;}
	.st9{fill:#B55935;}
	.st10{fill:#D8D8D8;}
	.st11{fill:#FFFFFF;}
	.st12{fill:#1E3E49;}
	.st13{fill:#305768;}
	.st14{fill:#12272D;}
	.st15{fill:url(#XMLID_854_);}
	.st16{fill:url(#XMLID_857_);}
	.st17{fill:url(#XMLID_868_);}
	.st18{fill:url(#XMLID_869_);}
	.st19{fill:url(#XMLID_870_);}
	.st20{fill:#557F6B;}
	.st21{fill:#757272;}
	.st22{fill:#545252;}
	.st23{fill:#7C3618;}
	.st24{fill:#F15A29;}
	.st25{fill:#491B0B;}
	.st26{fill:url(#XMLID_872_);}
	.st27{fill:url(#XMLID_876_);}
	.st28{fill:#FCCA65;}
	.st29{fill:#FBB040;}
	.st30{fill:#E29530;}
	.st31{fill:#151E3C;}
	.st32{fill:#B22676;}
	.st33{fill:#DD52A8;}
	.st34{fill:#A55438;}
	.st35{fill:#E5A061;}
	.st36{fill:#395B4A;}
	.st37{fill:#FFF200;}
	.st38{fill:#AFAEAE;}
	.st39{fill:#CE7751;}
	.st40{fill:#749E89;}
</style>
<g id="XMLID_276_">
	<defs>
		<rect id="XMLID_275_" width="1400" height="980"/>
	</defs>
	<clipPath id="XMLID_772_">
		<use xlink:href="#XMLID_275_"  style="overflow:visible;"/>
	</clipPath>
	<g id="XMLID_60_" class="st0">
		<linearGradient id="XMLID_853_" gradientUnits="userSpaceOnUse" x1="700" y1="9.7711" x2="700" y2="568.2219">
			<stop  offset="0" style="stop-color:#B3DBF4"/>
			<stop  offset="1" style="stop-color:#DEEFF6"/>
		</linearGradient>
		<rect id="XMLID_905_" class="st1" width="1400" height="980"/>
		<g id="XMLID_904_">
			<g id="XMLID_10792_">
				<g id="XMLID_10895_">
					<g id="XMLID_10896_">
						<path id="XMLID_10897_" class="st2" d="M1674.4,723V617h-32v-39h-65.7l-11,11v20h-13.3l-14,14v56h-19.3h-16.7v-47.3h-22.7
							l-8.7,8.7v6.7h-13.2v-51.3h-8.1V581h-24.7v14.7h-4.7v54.7h-19.7v-59.7l-19-19h-18V561l-5.3-5.3V543l-3.3-19.3l-4.7,20V557
							l-4.7,4.7V605h-3.3v-16l-8.7-25.3l-8,28v14.7v18h-3.3l-4,4v9.3h-4.7v-7.3h-16.7v-79h-19l-18.3,18.3v39.1H1244l-9.6,9.6v43.3
							h-5.3v-33.3h-8.7V619h-8.7v-11.8h-22.5l-7.8,7.8v21.7l-7,7V675h-12.7v22.7h-9.3V683h-23.3v18.7h-8V683h-17.3v14.7h-7.3v26
							h-10.7V695h-18.7v-5.3h-7.3v5.3h0v-78h-32v-39h-65.7l-11,11v20h-13.3l-14,14v56h-19.3h-16.7v-47.3h-22.7l-8.7,8.7v6.7h-13.2
							v-51.3h-8.1V581h-24.7v14.7h-4.7v54.7h-19.7v-59.7l-19-19h-18V561l-5.3-5.3V543l-3.3-19.3l-4.7,20V557l-4.7,4.7V605h-3.3v-16
							l-8.7-25.3l-8,28v14.7v18h-3.3l-4,4v9.3h-4.7v-7.3h-16.7v-79h-19l-18.3,18.3v39.1h-15.8l-9.6,9.6v43.3h-5.3v-33.3h-8.7V619
							h-8.7v-11.8h-22.5l-7.8,7.8v21.7l-7,7V675h-12.7v22.7h-9.3V683h-23.3v18.7h-8V683h-17.3v14.7h-7.3v26h-10.7V695h-18.7v-5.3
							h-7.3v5.3h0v-78h-32v-10.2h4.3v-8l-4.3-0.9v-13.1h4.3v-8l-14.5-2.8v-12.4h14.5v-8l-39.8-7.8v-3l-4.1-1.1h-6.9v1.9l-14.2-2.8
							l-61-0.1v-3.1l-2.8-1.4h-9.1v4.5l-39.6-0.1v6.5l6.9,3.2v13.6l-6.9,0v6.5l6.9,3.2v12.3l-6.9,0v6.5l6.9,3.2v12.3l-6.9,0v6.5
							l6.9,3.2v17.6l-5.2,5.2v6.7h-13.2v-51.3h-8.1V581h-24.7v14.7H191v54.7h-19.7v-59.7l-10.3-10.3H99.6l-3.2,11.3v14.7v18H93l-4,4
							v9.3h-4.7v-7.3H67.7v-79h-19l-18.3,18.3v39.1H14.6L5,618.3v43.3h-5.3v-33.3H-9V619h-8.7v-11.8h-22.5L-48,615v21.7l-7,7V675
							h-12.7v22.7H-77V683h-23.3v18.7h-8V683h-17.3v14.7h-7.3v26h-10.7V695h-18.7v-5.3h-7.3v5.3h-15v53v57.7h614.7h32.3h582.4h32.3
							h614.7V723H1674.4z M-151.3,739.1h-28.2c-0.2,0-0.4-0.1-0.4-0.3c0-0.1,0.2-0.3,0.4-0.3h28.2c0.2,0,0.4,0.1,0.4,0.3
							C-151,738.9-151.1,739.1-151.3,739.1z M-151.3,735.5h-28.2c-0.2,0-0.4-0.1-0.4-0.3c0-0.1,0.2-0.3,0.4-0.3h28.2
							c0.2,0,0.4,0.1,0.4,0.3C-151,735.4-151.1,735.5-151.3,735.5z M-151.3,731.9h-28.2c-0.2,0-0.4-0.1-0.4-0.3
							c0-0.1,0.2-0.3,0.4-0.3h28.2c0.2,0,0.4,0.1,0.4,0.3C-151,731.8-151.1,731.9-151.3,731.9z M-151.3,728.4h-28.2
							c-0.2,0-0.4-0.1-0.4-0.3c0-0.1,0.2-0.3,0.4-0.3h28.2c0.2,0,0.4,0.1,0.4,0.3C-151,728.3-151.1,728.4-151.3,728.4z
							 M-151.3,724.8h-28.2c-0.2,0-0.4-0.1-0.4-0.3c0-0.1,0.2-0.3,0.4-0.3h28.2c0.2,0,0.4,0.1,0.4,0.3
							C-151,724.7-151.1,724.8-151.3,724.8z M-151.3,721.3h-28.2c-0.2,0-0.4-0.1-0.4-0.3c0-0.1,0.2-0.3,0.4-0.3h28.2
							c0.2,0,0.4,0.1,0.4,0.3C-151,721.1-151.1,721.3-151.3,721.3z M-151.3,717.7h-28.2c-0.2,0-0.4-0.1-0.4-0.3
							c0-0.1,0.2-0.3,0.4-0.3h28.2c0.2,0,0.4,0.1,0.4,0.3C-151,717.6-151.1,717.7-151.3,717.7z M-151.3,714.2h-28.2
							c-0.2,0-0.4-0.1-0.4-0.3c0-0.1,0.2-0.3,0.4-0.3h28.2c0.2,0,0.4,0.1,0.4,0.3C-151,714-151.1,714.2-151.3,714.2z M-151.3,710.6
							h-28.2c-0.2,0-0.4-0.1-0.4-0.3c0-0.1,0.2-0.3,0.4-0.3h28.2c0.2,0,0.4,0.1,0.4,0.3C-151,710.5-151.1,710.6-151.3,710.6z
							 M-151.3,707.1h-28.2c-0.2,0-0.4-0.1-0.4-0.3c0-0.1,0.2-0.3,0.4-0.3h28.2c0.2,0,0.4,0.1,0.4,0.3
							C-151,706.9-151.1,707.1-151.3,707.1z M-151.3,703.5h-28.2c-0.2,0-0.4-0.1-0.4-0.3c0-0.1,0.2-0.3,0.4-0.3h28.2
							c0.2,0,0.4,0.1,0.4,0.3C-151,703.4-151.1,703.5-151.3,703.5z M-151.3,699.9h-28.2c-0.2,0-0.4-0.1-0.4-0.3
							c0-0.1,0.2-0.3,0.4-0.3h28.2c0.2,0,0.4,0.1,0.4,0.3C-151,699.8-151.1,699.9-151.3,699.9z M-90,786h-5v-5h5V786z M-90,774h-5
							v-5h5V774z M-90,762h-5v-5h5V762z M-90,750h-5v-5h5V750z M-90,738h-5v-5h5V738z M-90,726h-5v-5h5V726z M-90,714h-5v-5h5V714z
							 M-90,702h-5v-5h5V702z M-90,690h-5v-5h5V690z M-80,786h-5v-5h5V786z M-80,774h-5v-5h5V774z M-80,762h-5v-5h5V762z M-80,750
							h-5v-5h5V750z M-80,738h-5v-5h5V738z M-80,726h-5v-5h5V726z M-80,714h-5v-5h5V714z M-80,702h-5v-5h5V702z M-80,690h-5v-5h5
							V690z M-60.3,725.4h-2.2v-2.2h2.2V725.4z M-60.3,720h-2.2v-2.2h2.2V720z M-60.3,714.7h-2.2v-2.2h2.2V714.7z M-60.3,709.4h-2.2
							v-2.2h2.2V709.4z M-60.3,704.1h-2.2v-2.2h2.2V704.1z M-60.3,698.7h-2.2v-2.2h2.2V698.7z M-60.3,693.4h-2.2v-2.2h2.2V693.4z
							 M-60.3,688.1h-2.2v-2.2h2.2V688.1z M-60.3,682.8h-2.2v-2.2h2.2V682.8z M-55.8,725.4h-2.2v-2.2h2.2V725.4z M-55.8,720h-2.2
							v-2.2h2.2V720z M-55.8,714.7h-2.2v-2.2h2.2V714.7z M-55.8,709.4h-2.2v-2.2h2.2V709.4z M-55.8,704.1h-2.2v-2.2h2.2V704.1z
							 M-55.8,698.7h-2.2v-2.2h2.2V698.7z M-55.8,693.4h-2.2v-2.2h2.2V693.4z M-55.8,688.1h-2.2v-2.2h2.2V688.1z M-55.8,682.8h-2.2
							v-2.2h2.2V682.8z M-51.6,725.4h-2.2v-2.2h2.2V725.4z M-51.6,720h-2.2v-2.2h2.2V720z M-51.6,714.7h-2.2v-2.2h2.2V714.7z
							 M-51.6,709.4h-2.2v-2.2h2.2V709.4z M-51.6,704.1h-2.2v-2.2h2.2V704.1z M-51.6,698.7h-2.2v-2.2h2.2V698.7z M-51.6,693.4h-2.2
							v-2.2h2.2V693.4z M-51.6,688.1h-2.2v-2.2h2.2V688.1z M-51.6,682.8h-2.2v-2.2h2.2V682.8z M-47.2,725.4h-2.2v-2.2h2.2V725.4z
							 M-47.2,720h-2.2v-2.2h2.2V720z M-47.2,714.7h-2.2v-2.2h2.2V714.7z M-47.2,709.4h-2.2v-2.2h2.2V709.4z M-47.2,704.1h-2.2v-2.2
							h2.2V704.1z M-47.2,698.7h-2.2v-2.2h2.2V698.7z M-47.2,693.4h-2.2v-2.2h2.2V693.4z M-47.2,688.1h-2.2v-2.2h2.2V688.1z
							 M-47.2,682.8h-2.2v-2.2h2.2V682.8z M-36.8,616.6c0-0.3,0.2-0.5,0.5-0.5c0.3,0,0.5,0.2,0.5,0.5v37.3c0,0.3-0.2,0.5-0.5,0.5
							c-0.3,0-0.5-0.2-0.5-0.5V616.6z M-32.6,768h-5v-5h5V768z M-32.6,756h-5v-5h5V756z M-32.6,744h-5v-5h5V744z M-32.6,732h-5v-5h5
							V732z M-32.6,720h-5v-5h5V720z M-32.6,708h-5v-5h5V708z M-32.6,696h-5v-5h5V696z M-32.6,684h-5v-5h5V684z M-32.6,672h-5v-5h5
							V672z M-29.1,653.9c0,0.3-0.2,0.5-0.5,0.5c-0.3,0-0.5-0.2-0.5-0.5v-37.3c0-0.3,0.2-0.5,0.5-0.5c0.3,0,0.5,0.2,0.5,0.5V653.9z
							 M-22.6,768h-5v-5h5V768z M-22.6,756h-5v-5h5V756z M-22.6,744h-5v-5h5V744z M-22.6,732h-5v-5h5V732z M-22.6,720h-5v-5h5V720z
							 M-22.6,708h-5v-5h5V708z M-22.6,696h-5v-5h5V696z M-22.6,684h-5v-5h5V684z M-22.6,672h-5v-5h5V672z M-22.5,653.9
							c0,0.3-0.2,0.5-0.5,0.5c-0.3,0-0.5-0.2-0.5-0.5v-37.3c0-0.3,0.2-0.5,0.5-0.5c0.3,0,0.5,0.2,0.5,0.5V653.9z M21.9,716.4h-5v-5
							h5V716.4z M21.9,704.4h-5v-5h5V704.4z M21.9,692.4h-5v-5h5V692.4z M21.9,680.4h-5v-5h5V680.4z M21.9,668.4h-5v-5h5V668.4z
							 M21.9,656.4h-5v-5h5V656.4z M21.9,644.4h-5v-5h5V644.4z M21.9,632.4h-5v-5h5V632.4z M21.9,620.4h-5v-5h5V620.4z M31.9,716.4
							h-5v-5h5V716.4z M31.9,704.4h-5v-5h5V704.4z M31.9,692.4h-5v-5h5V692.4z M31.9,680.4h-5v-5h5V680.4z M31.9,668.4h-5v-5h5
							V668.4z M31.9,656.4h-5v-5h5V656.4z M31.9,644.4h-5v-5h5V644.4z M31.9,632.4h-5v-5h5V632.4z M31.9,620.4h-5v-5h5V620.4z
							 M71.5,735.5h-5v-5h5V735.5z M71.5,723.5h-5v-5h5V723.5z M71.5,711.5h-5v-5h5V711.5z M71.5,699.5h-5v-5h5V699.5z M71.5,687.5
							h-5v-5h5V687.5z M71.5,675.5h-5v-5h5V675.5z M71.5,663.5h-5v-5h5V663.5z M71.5,651.5h-5v-5h5V651.5z M71.5,639.5h-5v-5h5
							V639.5z M81.5,735.5h-5v-5h5V735.5z M81.5,723.5h-5v-5h5V723.5z M81.5,711.5h-5v-5h5V711.5z M81.5,699.5h-5v-5h5V699.5z
							 M81.5,687.5h-5v-5h5V687.5z M81.5,675.5h-5v-5h5V675.5z M81.5,663.5h-5v-5h5V663.5z M81.5,651.5h-5v-5h5V651.5z M81.5,639.5
							h-5v-5h5V639.5z M116.4,605H113v-5.3l3.3,1V605z M136.7,742.3c0,1.2-0.2,2.2-0.5,2.2c-0.3,0-0.5-1-0.5-2.2V605.1l1-0.4V742.3z
							 M143.4,742.3c0,1.2-0.2,2.2-0.5,2.2c-0.3,0-0.5-1-0.5-2.2V602.2l1-0.4V742.3z M150,742.3c0,1.2-0.2,2.2-0.5,2.2
							c-0.3,0-0.5-1-0.5-2.2V599.2l1-0.4V742.3z M216.1,599h3.7v3.7h-3.7V599z M216.1,607.8h3.7v3.7h-3.7V607.8z M216.1,616.6h3.7
							v3.7h-3.7V616.6z M216.1,625.4h3.7v3.7h-3.7V625.4z M216.1,634.1h3.7v3.7h-3.7V634.1z M216.1,642.9h3.7v3.7h-3.7V642.9z
							 M216.1,651.7h3.7v3.7h-3.7V651.7z M216.1,660.5h3.7v3.7h-3.7V660.5z M201.9,599h3.7v3.7h-3.7V599z M201.9,607.8h3.7v3.7h-3.7
							V607.8z M201.9,616.6h3.7v3.7h-3.7V616.6z M201.9,625.4h3.7v3.7h-3.7V625.4z M201.9,634.1h3.7v3.7h-3.7V634.1z M201.9,642.9
							h3.7v3.7h-3.7V642.9z M201.9,651.7h3.7v3.7h-3.7V651.7z M201.9,660.5h3.7v3.7h-3.7V660.5z M198.2,672.9h-3.7v-3.7h3.7V672.9z
							 M198.2,664.1h-3.7v-3.7h3.7V664.1z M198.2,655.3h-3.7v-3.7h3.7V655.3z M198.2,646.6h-3.7v-3.7h3.7V646.6z M198.2,637.8h-3.7
							v-3.7h3.7V637.8z M198.2,629h-3.7v-3.7h3.7V629z M198.2,620.2h-3.7v-3.7h3.7V620.2z M198.2,611.5h-3.7v-3.7h3.7V611.5z
							 M198.2,602.7h-3.7V599h3.7V602.7z M201.9,669.2h3.7v3.7h-3.7V669.2z M207,766.4h-2.2v-2.2h2.2V766.4z M207,761.1h-2.2v-2.2
							h2.2V761.1z M207,755.8h-2.2v-2.2h2.2V755.8z M207,750.4h-2.2v-2.2h2.2V750.4z M207,745.1h-2.2v-2.2h2.2V745.1z M207,739.8
							h-2.2v-2.2h2.2V739.8z M207,734.5h-2.2v-2.2h2.2V734.5z M207,729.1h-2.2v-2.2h2.2V729.1z M207,723.8h-2.2v-2.2h2.2V723.8z
							 M211.5,766.4h-2.2v-2.2h2.2V766.4z M211.5,761.1h-2.2v-2.2h2.2V761.1z M211.5,755.8h-2.2v-2.2h2.2V755.8z M211.5,750.4h-2.2
							v-2.2h2.2V750.4z M211.5,745.1h-2.2v-2.2h2.2V745.1z M211.5,739.8h-2.2v-2.2h2.2V739.8z M211.5,734.5h-2.2v-2.2h2.2V734.5z
							 M211.5,729.1h-2.2v-2.2h2.2V729.1z M211.5,723.8h-2.2v-2.2h2.2V723.8z M212.5,672.9h-3.7v-3.7h3.7V672.9z M212.5,664.1h-3.7
							v-3.7h3.7V664.1z M212.5,655.3h-3.7v-3.7h3.7V655.3z M212.5,646.6h-3.7v-3.7h3.7V646.6z M212.5,637.8h-3.7v-3.7h3.7V637.8z
							 M212.5,629h-3.7v-3.7h3.7V629z M212.5,620.2h-3.7v-3.7h3.7V620.2z M212.5,611.5h-3.7v-3.7h3.7V611.5z M212.5,602.7h-3.7V599
							h3.7V602.7z M215.7,766.4h-2.2v-2.2h2.2V766.4z M215.7,761.1h-2.2v-2.2h2.2V761.1z M215.7,755.8h-2.2v-2.2h2.2V755.8z
							 M215.7,750.4h-2.2v-2.2h2.2V750.4z M215.7,745.1h-2.2v-2.2h2.2V745.1z M215.7,739.8h-2.2v-2.2h2.2V739.8z M215.7,734.5h-2.2
							v-2.2h2.2V734.5z M215.7,729.1h-2.2v-2.2h2.2V729.1z M215.7,723.8h-2.2v-2.2h2.2V723.8z M216.1,669.2h3.7v3.7h-3.7V669.2z
							 M220.1,766.4h-2.2v-2.2h2.2V766.4z M220.1,761.1h-2.2v-2.2h2.2V761.1z M220.1,755.8h-2.2v-2.2h2.2V755.8z M220.1,750.4h-2.2
							v-2.2h2.2V750.4z M220.1,745.1h-2.2v-2.2h2.2V745.1z M220.1,739.8h-2.2v-2.2h2.2V739.8z M220.1,734.5h-2.2v-2.2h2.2V734.5z
							 M220.1,729.1h-2.2v-2.2h2.2V729.1z M220.1,723.8h-2.2v-2.2h2.2V723.8z M323.7,652.7l0.6,0.3h-0.6V652.7z M270.3,555.9h37.4v8
							l0.1,0l-37.5,0V555.9z M270.3,579.2h37.4v6.8l-37.4,0V579.2z M270.3,601.2h37.4v6.8l0,0l-37.4,0V601.2z M256.5,679.6h-2.2
							v-2.2h2.2V679.6z M256.5,674.3h-2.2V672h2.2V674.3z M256.5,668.9h-2.2v-2.2h2.2V668.9z M256.5,663.6h-2.2v-2.2h2.2V663.6z
							 M256.5,658.3h-2.2v-2.2h2.2V658.3z M256.5,652.9h-2.2v-2.2h2.2V652.9z M256.5,647.6h-0.9v-2.2h0.9V647.6z M256.5,642.3h-0.9
							v-2.2h0.9V642.3z M256.5,637h-0.9v-2.2h0.9V637z M260.9,679.6h-2.2v-2.2h2.2V679.6z M260.9,674.3h-2.2V672h2.2V674.3z
							 M260.9,668.9h-2.2v-2.2h2.2V668.9z M260.9,663.6h-2.2v-2.2h2.2V663.6z M260.9,658.3h-2.2v-2.2h2.2V658.3z M260.9,652.9h-2.2
							v-2.2h2.2V652.9z M260.9,647.6h-2.2v-2.2h2.2V647.6z M260.9,642.3h-2.2v-2.2h2.2V642.3z M260.9,637h-2.2v-2.2h2.2V637z
							 M261.6,631.7h-6v-10.1l3.4,1.6h2.6V631.7z M261.6,607.9l-6,0v-8.3l3.4,1.6h2.6V607.9z M261.6,585.9l-6,0v-8.3l3.4,1.6h2.6
							V585.9z M261.6,563.9l-6,0v-9.6l3.4,1.6h2.6V563.9z M265.1,679.6h-2.2v-2.2h2.2V679.6z M265.1,674.3h-2.2V672h2.2V674.3z
							 M265.1,668.9h-2.2v-2.2h2.2V668.9z M265.1,663.6h-2.2v-2.2h2.2V663.6z M265.1,658.3h-2.2v-2.2h2.2V658.3z M269.6,679.6h-2.2
							v-2.2h2.2V679.6z M269.6,674.3h-2.2V672h2.2V674.3z M269.6,668.9h-2.2v-2.2h2.2V668.9z M269.6,663.6h-2.2v-2.2h2.2V663.6z
							 M269.6,658.3h-2.2v-2.2h2.2V658.3z M309,679h-19.3H273v-47.3h-2.7v-8.5h37.4v24.5l1.3,0.7V679z M322.9,608l-6.5,0v-6.8h6.5
							V608z M322.9,586l-6.5,0v-6.8h6.5V586z M322.9,564l-6.5,0v-8.1h6.5V564z M325.9,663.6h-2.2v-2.2h2.2V663.6z M325.9,658.3h-2.2
							v-2.2h2.2V658.3z M330.4,663.6h-2.2v-2.2h2.2V663.6z M330.4,658.3h-2.2v-2.2h2.2V658.3z M334.6,663.6h-2.2v-2.2h2.2V663.6z
							 M334.6,658.3h-2.2v-2.2h2.2V658.3z M334.6,652.9h-2.2v-2.2h2.2V652.9z M334.6,647.6h-2.2v-2.2h2.2V647.6z M334.6,642.3h-2.2
							v-2.2h2.2V642.3z M334.6,637h-2.2v-2.2h2.2V637z M334.6,631.6h-2.2v-2.2h2.2V631.6z M334.6,626.3h-2.2v-2.2h2.2V626.3z
							 M336.4,608l-4.7,0v-6.8h4.7V608z M339,663.6h-2.2v-2.2h2.2V663.6z M339,658.3h-2.2v-2.2h2.2V658.3z M339,652.9h-2.2v-2.2h2.2
							V652.9z M339,647.6h-2.2v-2.2h2.2V647.6z M339,642.3h-2.2v-2.2h2.2V642.3z M339,637h-2.2v-2.2h2.2V637z M339,631.6h-2.2v-2.2
							h2.2V631.6z M339,626.3h-2.2v-2.2h2.2V626.3z M339.4,586l-7.7,0v-6.8h14.6L339.4,586z M374.7,568.4l-22.3-4.4l-20.7,0v-8.1h19
							l24.1,5V568.4z M386.5,734.3h-3.7v-3.7h3.7V734.3z M386.5,725.5h-3.7v-3.7h3.7V725.5z M386.5,716.8h-3.7v-3.7h3.7V716.8z
							 M386.5,708h-3.7v-3.7h3.7V708z M386.5,699.2h-3.7v-3.7h3.7V699.2z M386.5,690.4h-3.7v-3.7h3.7V690.4z M386.5,681.7h-3.7V678
							h3.7V681.7z M386.5,672.9h-3.7v-3.7h3.7V672.9z M386.5,664.1h-3.7v-3.7h3.7V664.1z M386.5,657.2h-3.1v-3.7h3.1V657.2z
							 M386.5,648.4h-3.1v-3.7h3.1V648.4z M386.5,639.6h-3.1V636h3.1V639.6z M386.5,630.8h-3.1v-2h3.1V630.8z M386.5,613.3h-3.1
							v-3.7h3.1V613.3z M386.5,592.7l-3.1-0.6v0h3.1V592.7z M386.5,587h-3.1v-2.2h3.1V587z M393.8,734.3h-3.7v-3.7h3.7V734.3z
							 M393.8,725.5h-3.7v-3.7h3.7V725.5z M393.8,716.8h-3.7v-3.7h3.7V716.8z M393.8,708h-3.7v-3.7h3.7V708z M393.8,699.2h-3.7v-3.7
							h3.7V699.2z M393.8,690.4h-3.7v-3.7h3.7V690.4z M393.8,681.7h-3.7V678h3.7V681.7z M393.8,672.9h-3.7v-3.7h3.7V672.9z
							 M393.8,664.1h-3.7v-3.7h3.7V664.1z M393.8,657.2h-3.7v-3.7h3.7V657.2z M393.8,648.4h-3.7v-3.7h3.7V648.4z M393.8,639.6h-3.7
							V636h3.7V639.6z M393.8,630.8h-3.7v-2h3.7V630.8z M393.8,613.3h-3.7v-3.7h3.7V613.3z M393.8,594.2l-3.7-0.7v-1.3h3.7V594.2z
							 M393.8,587h-3.7v-2.2h3.7V587z M394.2,572.2l-10.8-2.1v-8.6h10.8V572.2z M400.7,734.3h-3.7v-3.7h3.7V734.3z M400.7,725.5
							h-3.7v-3.7h3.7V725.5z M400.7,716.8h-3.7v-3.7h3.7V716.8z M400.7,708h-3.7v-3.7h3.7V708z M400.7,699.2h-3.7v-3.7h3.7V699.2z
							 M400.7,690.4h-3.7v-3.7h3.7V690.4z M400.7,681.7h-3.7V678h3.7V681.7z M400.7,672.9h-3.7v-3.7h3.7V672.9z M400.7,664.1h-3.7
							v-3.7h3.7V664.1z M408,734.3h-3.7v-3.7h3.7V734.3z M408,725.5h-3.7v-3.7h3.7V725.5z M408,716.8h-3.7v-3.7h3.7V716.8z M408,708
							h-3.7v-3.7h3.7V708z M408,699.2h-3.7v-3.7h3.7V699.2z M408,690.4h-3.7v-3.7h3.7V690.4z M408,681.7h-3.7V678h3.7V681.7z
							 M408,672.9h-3.7v-3.7h3.7V672.9z M408,664.1h-3.7v-3.7h3.7V664.1z M408,657.2h-3.7v-3.7h3.7V657.2z M408,648.4h-3.7v-3.7h3.7
							V648.4z M408,639.6h-3.7V636h3.7V639.6z M408,630.8h-3.7v-2h3.7V630.8z M408,619l-2.8-0.6h2.8V619z M408,613.3h-3.7v-3.7h3.7
							V613.3z M408,595.7h-3.7v-3.7h3.7V595.7z M408,587h-3.7v-2.2h3.7V587z M463.3,739.1h-1v-0.5h1c0.2,0,0.4,0.1,0.4,0.3
							C463.7,738.9,463.6,739.1,463.3,739.1z M463.3,735.5h-1V735h1c0.2,0,0.4,0.1,0.4,0.3C463.7,735.4,463.6,735.5,463.3,735.5z
							 M463.3,731.9h-1v-0.5h1c0.2,0,0.4,0.1,0.4,0.3C463.7,731.8,463.6,731.9,463.3,731.9z M463.3,728.4h-1v-0.5h1
							c0.2,0,0.4,0.1,0.4,0.3C463.7,728.3,463.6,728.4,463.3,728.4z M463.3,724.8h-1v-0.5h1c0.2,0,0.4,0.1,0.4,0.3
							C463.7,724.7,463.6,724.8,463.3,724.8z M463.3,721.3H445v-0.5h18.3c0.2,0,0.4,0.1,0.4,0.3
							C463.7,721.1,463.6,721.3,463.3,721.3z M463.3,717.7H445v-0.5h18.3c0.2,0,0.4,0.1,0.4,0.3
							C463.7,717.6,463.6,717.7,463.3,717.7z M463.3,714.2H445v-0.5h18.3c0.2,0,0.4,0.1,0.4,0.3C463.7,714,463.6,714.2,463.3,714.2z
							 M463.3,710.6H445v-0.5h18.3c0.2,0,0.4,0.1,0.4,0.3C463.7,710.5,463.6,710.6,463.3,710.6z M463.3,707.1H445v-0.5h18.3
							c0.2,0,0.4,0.1,0.4,0.3C463.7,706.9,463.6,707.1,463.3,707.1z M463.3,703.5H445V703h18.3c0.2,0,0.4,0.1,0.4,0.3
							C463.7,703.4,463.6,703.5,463.3,703.5z M463.3,699.9H445v-0.5h18.3c0.2,0,0.4,0.1,0.4,0.3
							C463.7,699.8,463.6,699.9,463.3,699.9z M524.7,786h-5v-5h5V786z M524.7,774h-5v-5h5V774z M524.7,762h-5v-5h5V762z M524.7,750
							h-5v-5h5V750z M524.7,738h-5v-5h5V738z M524.7,726h-5v-5h5V726z M524.7,714h-5v-5h5V714z M524.7,702h-5v-5h5V702z M524.7,690
							h-5v-5h5V690z M534.7,786h-5v-5h5V786z M534.7,774h-5v-5h5V774z M534.7,762h-5v-5h5V762z M534.7,750h-5v-5h5V750z M534.7,738
							h-5v-5h5V738z M534.7,726h-5v-5h5V726z M534.7,714h-5v-5h5V714z M534.7,702h-5v-5h5V702z M534.7,690h-5v-5h5V690z
							 M554.4,725.4h-2.2v-2.2h2.2V725.4z M554.4,720h-2.2v-2.2h2.2V720z M554.4,714.7h-2.2v-2.2h2.2V714.7z M554.4,709.4h-2.2v-2.2
							h2.2V709.4z M554.4,704.1h-2.2v-2.2h2.2V704.1z M554.4,698.7h-2.2v-2.2h2.2V698.7z M554.4,693.4h-2.2v-2.2h2.2V693.4z
							 M554.4,688.1h-2.2v-2.2h2.2V688.1z M554.4,682.8h-2.2v-2.2h2.2V682.8z M558.8,725.4h-2.2v-2.2h2.2V725.4z M558.8,720h-2.2
							v-2.2h2.2V720z M558.8,714.7h-2.2v-2.2h2.2V714.7z M558.8,709.4h-2.2v-2.2h2.2V709.4z M558.8,704.1h-2.2v-2.2h2.2V704.1z
							 M558.8,698.7h-2.2v-2.2h2.2V698.7z M558.8,693.4h-2.2v-2.2h2.2V693.4z M558.8,688.1h-2.2v-2.2h2.2V688.1z M558.8,682.8h-2.2
							v-2.2h2.2V682.8z M563.1,725.4h-2.2v-2.2h2.2V725.4z M563.1,720h-2.2v-2.2h2.2V720z M563.1,714.7h-2.2v-2.2h2.2V714.7z
							 M563.1,709.4h-2.2v-2.2h2.2V709.4z M563.1,704.1h-2.2v-2.2h2.2V704.1z M563.1,698.7h-2.2v-2.2h2.2V698.7z M563.1,693.4h-2.2
							v-2.2h2.2V693.4z M563.1,688.1h-2.2v-2.2h2.2V688.1z M563.1,682.8h-2.2v-2.2h2.2V682.8z M567.5,725.4h-2.2v-2.2h2.2V725.4z
							 M567.5,720h-2.2v-2.2h2.2V720z M567.5,714.7h-2.2v-2.2h2.2V714.7z M567.5,709.4h-2.2v-2.2h2.2V709.4z M567.5,704.1h-2.2v-2.2
							h2.2V704.1z M567.5,698.7h-2.2v-2.2h2.2V698.7z M567.5,693.4h-2.2v-2.2h2.2V693.4z M567.5,688.1h-2.2v-2.2h2.2V688.1z
							 M567.5,682.8h-2.2v-2.2h2.2V682.8z M577.9,616.6c0-0.3,0.2-0.5,0.5-0.5c0.3,0,0.5,0.2,0.5,0.5v37.3c0,0.3-0.2,0.5-0.5,0.5
							c-0.3,0-0.5-0.2-0.5-0.5V616.6z M582.1,768h-5v-5h5V768z M582.1,756h-5v-5h5V756z M582.1,744h-5v-5h5V744z M582.1,732h-5v-5h5
							V732z M582.1,720h-5v-5h5V720z M582.1,708h-5v-5h5V708z M582.1,696h-5v-5h5V696z M582.1,684h-5v-5h5V684z M582.1,672h-5v-5h5
							V672z M585.6,653.9c0,0.3-0.2,0.5-0.5,0.5c-0.3,0-0.5-0.2-0.5-0.5v-37.3c0-0.3,0.2-0.5,0.5-0.5c0.3,0,0.5,0.2,0.5,0.5V653.9z
							 M592.1,768h-5v-5h5V768z M592.1,756h-5v-5h5V756z M592.1,744h-5v-5h5V744z M592.1,732h-5v-5h5V732z M592.1,720h-5v-5h5V720z
							 M592.1,708h-5v-5h5V708z M592.1,696h-5v-5h5V696z M592.1,684h-5v-5h5V684z M592.1,672h-5v-5h5V672z M592.2,653.9
							c0,0.3-0.2,0.5-0.5,0.5c-0.3,0-0.5-0.2-0.5-0.5v-37.3c0-0.3,0.2-0.5,0.5-0.5c0.3,0,0.5,0.2,0.5,0.5V653.9z M636.6,716.4h-5v-5
							h5V716.4z M636.6,704.4h-5v-5h5V704.4z M636.6,692.4h-5v-5h5V692.4z M636.6,680.4h-5v-5h5V680.4z M636.6,668.4h-5v-5h5V668.4z
							 M636.6,656.4h-5v-5h5V656.4z M636.6,644.4h-5v-5h5V644.4z M636.6,632.4h-5v-5h5V632.4z M636.6,620.4h-5v-5h5V620.4z
							 M646.6,716.4h-5v-5h5V716.4z M646.6,704.4h-5v-5h5V704.4z M646.6,692.4h-5v-5h5V692.4z M646.6,680.4h-5v-5h5V680.4z
							 M646.6,668.4h-5v-5h5V668.4z M646.6,656.4h-5v-5h5V656.4z M646.6,644.4h-5v-5h5V644.4z M646.6,632.4h-5v-5h5V632.4z
							 M646.6,620.4h-5v-5h5V620.4z M686.2,735.5h-5v-5h5V735.5z M686.2,723.5h-5v-5h5V723.5z M686.2,711.5h-5v-5h5V711.5z
							 M686.2,699.5h-5v-5h5V699.5z M686.2,687.5h-5v-5h5V687.5z M686.2,675.5h-5v-5h5V675.5z M686.2,663.5h-5v-5h5V663.5z
							 M686.2,651.5h-5v-5h5V651.5z M686.2,639.5h-5v-5h5V639.5z M696.2,735.5h-5v-5h5V735.5z M696.2,723.5h-5v-5h5V723.5z
							 M696.2,711.5h-5v-5h5V711.5z M696.2,699.5h-5v-5h5V699.5z M696.2,687.5h-5v-5h5V687.5z M696.2,675.5h-5v-5h5V675.5z
							 M696.2,663.5h-5v-5h5V663.5z M696.2,651.5h-5v-5h5V651.5z M696.2,639.5h-5v-5h5V639.5z M751.4,742.3c0,1.2-0.2,2.2-0.5,2.2
							c-0.3,0-0.5-1-0.5-2.2V578.8c0-1.2,0.2-2.2,0.5-2.2c0.3,0,0.5,1,0.5,2.2V742.3z M758.1,742.3c0,1.2-0.2,2.2-0.5,2.2
							c-0.3,0-0.5-1-0.5-2.2V578.8c0-1.2,0.2-2.2,0.5-2.2c0.3,0,0.5,1,0.5,2.2V742.3z M764.7,742.3c0,1.2-0.2,2.2-0.5,2.2
							c-0.3,0-0.5-1-0.5-2.2V578.8c0-1.2,0.2-2.2,0.5-2.2c0.3,0,0.5,1,0.5,2.2V742.3z M830.8,599h3.7v3.7h-3.7V599z M830.8,607.8
							h3.7v3.7h-3.7V607.8z M830.8,616.6h3.7v3.7h-3.7V616.6z M830.8,625.4h3.7v3.7h-3.7V625.4z M830.8,634.1h3.7v3.7h-3.7V634.1z
							 M830.8,642.9h3.7v3.7h-3.7V642.9z M830.8,651.7h3.7v3.7h-3.7V651.7z M830.8,660.5h3.7v3.7h-3.7V660.5z M816.5,599h3.7v3.7
							h-3.7V599z M816.5,607.8h3.7v3.7h-3.7V607.8z M816.5,616.6h3.7v3.7h-3.7V616.6z M816.5,625.4h3.7v3.7h-3.7V625.4z
							 M816.5,634.1h3.7v3.7h-3.7V634.1z M816.5,642.9h3.7v3.7h-3.7V642.9z M816.5,651.7h3.7v3.7h-3.7V651.7z M816.5,660.5h3.7v3.7
							h-3.7V660.5z M812.9,672.9h-3.7v-3.7h3.7V672.9z M812.9,664.1h-3.7v-3.7h3.7V664.1z M812.9,655.3h-3.7v-3.7h3.7V655.3z
							 M812.9,646.6h-3.7v-3.7h3.7V646.6z M812.9,637.8h-3.7v-3.7h3.7V637.8z M812.9,629h-3.7v-3.7h3.7V629z M812.9,620.2h-3.7v-3.7
							h3.7V620.2z M812.9,611.5h-3.7v-3.7h3.7V611.5z M812.9,602.7h-3.7V599h3.7V602.7z M816.5,669.2h3.7v3.7h-3.7V669.2z
							 M821.7,766.4h-2.2v-2.2h2.2V766.4z M821.7,761.1h-2.2v-2.2h2.2V761.1z M821.7,755.8h-2.2v-2.2h2.2V755.8z M821.7,750.4h-2.2
							v-2.2h2.2V750.4z M821.7,745.1h-2.2v-2.2h2.2V745.1z M821.7,739.8h-2.2v-2.2h2.2V739.8z M821.7,734.5h-2.2v-2.2h2.2V734.5z
							 M821.7,729.1h-2.2v-2.2h2.2V729.1z M821.7,723.8h-2.2v-2.2h2.2V723.8z M826.1,766.4h-2.2v-2.2h2.2V766.4z M826.1,761.1h-2.2
							v-2.2h2.2V761.1z M826.1,755.8h-2.2v-2.2h2.2V755.8z M826.1,750.4h-2.2v-2.2h2.2V750.4z M826.1,745.1h-2.2v-2.2h2.2V745.1z
							 M826.1,739.8h-2.2v-2.2h2.2V739.8z M826.1,734.5h-2.2v-2.2h2.2V734.5z M826.1,729.1h-2.2v-2.2h2.2V729.1z M826.1,723.8h-2.2
							v-2.2h2.2V723.8z M827.1,672.9h-3.7v-3.7h3.7V672.9z M827.1,664.1h-3.7v-3.7h3.7V664.1z M827.1,655.3h-3.7v-3.7h3.7V655.3z
							 M827.1,646.6h-3.7v-3.7h3.7V646.6z M827.1,637.8h-3.7v-3.7h3.7V637.8z M827.1,629h-3.7v-3.7h3.7V629z M827.1,620.2h-3.7v-3.7
							h3.7V620.2z M827.1,611.5h-3.7v-3.7h3.7V611.5z M827.1,602.7h-3.7V599h3.7V602.7z M830.4,766.4h-2.2v-2.2h2.2V766.4z
							 M830.4,761.1h-2.2v-2.2h2.2V761.1z M830.4,755.8h-2.2v-2.2h2.2V755.8z M830.4,750.4h-2.2v-2.2h2.2V750.4z M830.4,745.1h-2.2
							v-2.2h2.2V745.1z M830.4,739.8h-2.2v-2.2h2.2V739.8z M830.4,734.5h-2.2v-2.2h2.2V734.5z M830.4,729.1h-2.2v-2.2h2.2V729.1z
							 M830.4,723.8h-2.2v-2.2h2.2V723.8z M830.8,669.2h3.7v3.7h-3.7V669.2z M834.8,766.4h-2.2v-2.2h2.2V766.4z M834.8,761.1h-2.2
							v-2.2h2.2V761.1z M834.8,755.8h-2.2v-2.2h2.2V755.8z M834.8,750.4h-2.2v-2.2h2.2V750.4z M834.8,745.1h-2.2v-2.2h2.2V745.1z
							 M834.8,739.8h-2.2v-2.2h2.2V739.8z M834.8,734.5h-2.2v-2.2h2.2V734.5z M834.8,729.1h-2.2v-2.2h2.2V729.1z M834.8,723.8h-2.2
							v-2.2h2.2V723.8z M871.1,679.6h-2.2v-2.2h2.2V679.6z M871.1,674.3h-2.2V672h2.2V674.3z M871.1,668.9h-2.2v-2.2h2.2V668.9z
							 M871.1,663.6h-2.2v-2.2h2.2V663.6z M871.1,658.3h-2.2v-2.2h2.2V658.3z M871.1,652.9h-2.2v-2.2h2.2V652.9z M871.1,647.6h-2.2
							v-2.2h2.2V647.6z M871.1,642.3h-2.2v-2.2h2.2V642.3z M871.1,637h-2.2v-2.2h2.2V637z M875.6,679.6h-2.2v-2.2h2.2V679.6z
							 M875.6,674.3h-2.2V672h2.2V674.3z M875.6,668.9h-2.2v-2.2h2.2V668.9z M875.6,663.6h-2.2v-2.2h2.2V663.6z M875.6,658.3h-2.2
							v-2.2h2.2V658.3z M875.6,652.9h-2.2v-2.2h2.2V652.9z M875.6,647.6h-2.2v-2.2h2.2V647.6z M875.6,642.3h-2.2v-2.2h2.2V642.3z
							 M875.6,637h-2.2v-2.2h2.2V637z M879.8,679.6h-2.2v-2.2h2.2V679.6z M879.8,674.3h-2.2V672h2.2V674.3z M879.8,668.9h-2.2v-2.2
							h2.2V668.9z M879.8,663.6h-2.2v-2.2h2.2V663.6z M879.8,658.3h-2.2v-2.2h2.2V658.3z M879.8,652.9h-2.2v-2.2h2.2V652.9z
							 M879.8,647.6h-2.2v-2.2h2.2V647.6z M879.8,642.3h-2.2v-2.2h2.2V642.3z M879.8,637h-2.2v-2.2h2.2V637z M884.2,679.6H882v-2.2
							h2.2V679.6z M884.2,674.3H882V672h2.2V674.3z M884.2,668.9H882v-2.2h2.2V668.9z M884.2,663.6H882v-2.2h2.2V663.6z
							 M884.2,658.3H882v-2.2h2.2V658.3z M884.2,652.9H882v-2.2h2.2V652.9z M884.2,647.6H882v-2.2h2.2V647.6z M884.2,642.3H882v-2.2
							h2.2V642.3z M884.2,637H882v-2.2h2.2V637z M940.6,663.6h-2.2v-2.2h2.2V663.6z M940.6,658.3h-2.2v-2.2h2.2V658.3z M940.6,652.9
							h-2.2v-2.2h2.2V652.9z M940.6,647.6h-2.2v-2.2h2.2V647.6z M940.6,642.3h-2.2v-2.2h2.2V642.3z M940.6,637h-2.2v-2.2h2.2V637z
							 M940.6,631.6h-2.2v-2.2h2.2V631.6z M940.6,626.3h-2.2v-2.2h2.2V626.3z M940.6,621h-2.2v-2.2h2.2V621z M945.1,663.6h-2.2v-2.2
							h2.2V663.6z M945.1,658.3h-2.2v-2.2h2.2V658.3z M945.1,652.9h-2.2v-2.2h2.2V652.9z M945.1,647.6h-2.2v-2.2h2.2V647.6z
							 M945.1,642.3h-2.2v-2.2h2.2V642.3z M945.1,637h-2.2v-2.2h2.2V637z M945.1,631.6h-2.2v-2.2h2.2V631.6z M945.1,626.3h-2.2v-2.2
							h2.2V626.3z M945.1,621h-2.2v-2.2h2.2V621z M949.3,663.6h-2.2v-2.2h2.2V663.6z M949.3,658.3h-2.2v-2.2h2.2V658.3z
							 M949.3,652.9h-2.2v-2.2h2.2V652.9z M949.3,647.6h-2.2v-2.2h2.2V647.6z M949.3,642.3h-2.2v-2.2h2.2V642.3z M949.3,637h-2.2
							v-2.2h2.2V637z M949.3,631.6h-2.2v-2.2h2.2V631.6z M949.3,626.3h-2.2v-2.2h2.2V626.3z M949.3,621h-2.2v-2.2h2.2V621z
							 M953.7,663.6h-2.2v-2.2h2.2V663.6z M953.7,658.3h-2.2v-2.2h2.2V658.3z M953.7,652.9h-2.2v-2.2h2.2V652.9z M953.7,647.6h-2.2
							v-2.2h2.2V647.6z M953.7,642.3h-2.2v-2.2h2.2V642.3z M953.7,637h-2.2v-2.2h2.2V637z M953.7,631.6h-2.2v-2.2h2.2V631.6z
							 M953.7,626.3h-2.2v-2.2h2.2V626.3z M953.7,621h-2.2v-2.2h2.2V621z M1001.1,734.3h-3.7v-3.7h3.7V734.3z M1001.1,725.5h-3.7
							v-3.7h3.7V725.5z M1001.1,716.8h-3.7v-3.7h3.7V716.8z M1001.1,708h-3.7v-3.7h3.7V708z M1001.1,699.2h-3.7v-3.7h3.7V699.2z
							 M1001.1,690.4h-3.7v-3.7h3.7V690.4z M1001.1,681.7h-3.7V678h3.7V681.7z M1001.1,672.9h-3.7v-3.7h3.7V672.9z M1001.1,664.1
							h-3.7v-3.7h3.7V664.1z M1001.1,657.2h-3.7v-3.7h3.7V657.2z M1001.1,648.4h-3.7v-3.7h3.7V648.4z M1001.1,639.6h-3.7V636h3.7
							V639.6z M1001.1,630.8h-3.7v-3.7h3.7V630.8z M1001.1,622.1h-3.7v-3.7h3.7V622.1z M1001.1,613.3h-3.7v-3.7h3.7V613.3z
							 M1001.1,604.5h-3.7v-3.7h3.7V604.5z M1001.1,595.7h-3.7v-3.7h3.7V595.7z M1001.1,587h-3.7v-3.7h3.7V587z M1008.5,734.3h-3.7
							v-3.7h3.7V734.3z M1008.5,725.5h-3.7v-3.7h3.7V725.5z M1008.5,716.8h-3.7v-3.7h3.7V716.8z M1008.5,708h-3.7v-3.7h3.7V708z
							 M1008.5,699.2h-3.7v-3.7h3.7V699.2z M1008.5,690.4h-3.7v-3.7h3.7V690.4z M1008.5,681.7h-3.7V678h3.7V681.7z M1008.5,672.9
							h-3.7v-3.7h3.7V672.9z M1008.5,664.1h-3.7v-3.7h3.7V664.1z M1008.5,657.2h-3.7v-3.7h3.7V657.2z M1008.5,648.4h-3.7v-3.7h3.7
							V648.4z M1008.5,639.6h-3.7V636h3.7V639.6z M1008.5,630.8h-3.7v-3.7h3.7V630.8z M1008.5,622.1h-3.7v-3.7h3.7V622.1z
							 M1008.5,613.3h-3.7v-3.7h3.7V613.3z M1008.5,604.5h-3.7v-3.7h3.7V604.5z M1008.5,595.7h-3.7v-3.7h3.7V595.7z M1008.5,587
							h-3.7v-3.7h3.7V587z M1015.4,734.3h-3.7v-3.7h3.7V734.3z M1015.4,725.5h-3.7v-3.7h3.7V725.5z M1015.4,716.8h-3.7v-3.7h3.7
							V716.8z M1015.4,708h-3.7v-3.7h3.7V708z M1015.4,699.2h-3.7v-3.7h3.7V699.2z M1015.4,690.4h-3.7v-3.7h3.7V690.4z
							 M1015.4,681.7h-3.7V678h3.7V681.7z M1015.4,672.9h-3.7v-3.7h3.7V672.9z M1015.4,664.1h-3.7v-3.7h3.7V664.1z M1015.4,657.2
							h-3.7v-3.7h3.7V657.2z M1015.4,648.4h-3.7v-3.7h3.7V648.4z M1015.4,639.6h-3.7V636h3.7V639.6z M1015.4,630.8h-3.7v-3.7h3.7
							V630.8z M1015.4,622.1h-3.7v-3.7h3.7V622.1z M1015.4,613.3h-3.7v-3.7h3.7V613.3z M1015.4,604.5h-3.7v-3.7h3.7V604.5z
							 M1015.4,595.7h-3.7v-3.7h3.7V595.7z M1015.4,587h-3.7v-3.7h3.7V587z M1022.7,734.3h-3.7v-3.7h3.7V734.3z M1022.7,725.5h-3.7
							v-3.7h3.7V725.5z M1022.7,716.8h-3.7v-3.7h3.7V716.8z M1022.7,708h-3.7v-3.7h3.7V708z M1022.7,699.2h-3.7v-3.7h3.7V699.2z
							 M1022.7,690.4h-3.7v-3.7h3.7V690.4z M1022.7,681.7h-3.7V678h3.7V681.7z M1022.7,672.9h-3.7v-3.7h3.7V672.9z M1022.7,664.1
							h-3.7v-3.7h3.7V664.1z M1022.7,657.2h-3.7v-3.7h3.7V657.2z M1022.7,648.4h-3.7v-3.7h3.7V648.4z M1022.7,639.6h-3.7V636h3.7
							V639.6z M1022.7,630.8h-3.7v-3.7h3.7V630.8z M1022.7,622.1h-3.7v-3.7h3.7V622.1z M1022.7,613.3h-3.7v-3.7h3.7V613.3z
							 M1022.7,604.5h-3.7v-3.7h3.7V604.5z M1022.7,595.7h-3.7v-3.7h3.7V595.7z M1022.7,587h-3.7v-3.7h3.7V587z M1078,739.1h-1v-0.5
							h1c0.2,0,0.4,0.1,0.4,0.3C1078.4,738.9,1078.2,739.1,1078,739.1z M1078,735.5h-1V735h1c0.2,0,0.4,0.1,0.4,0.3
							C1078.4,735.4,1078.2,735.5,1078,735.5z M1078,731.9h-1v-0.5h1c0.2,0,0.4,0.1,0.4,0.3C1078.4,731.8,1078.2,731.9,1078,731.9z
							 M1078,728.4h-1v-0.5h1c0.2,0,0.4,0.1,0.4,0.3C1078.4,728.3,1078.2,728.4,1078,728.4z M1078,724.8h-1v-0.5h1
							c0.2,0,0.4,0.1,0.4,0.3C1078.4,724.7,1078.2,724.8,1078,724.8z M1078,721.3h-18.3v-0.5h18.3c0.2,0,0.4,0.1,0.4,0.3
							C1078.4,721.1,1078.2,721.3,1078,721.3z M1078,717.7h-18.3v-0.5h18.3c0.2,0,0.4,0.1,0.4,0.3
							C1078.4,717.6,1078.2,717.7,1078,717.7z M1078,714.2h-18.3v-0.5h18.3c0.2,0,0.4,0.1,0.4,0.3
							C1078.4,714,1078.2,714.2,1078,714.2z M1078,710.6h-18.3v-0.5h18.3c0.2,0,0.4,0.1,0.4,0.3
							C1078.4,710.5,1078.2,710.6,1078,710.6z M1078,707.1h-18.3v-0.5h18.3c0.2,0,0.4,0.1,0.4,0.3
							C1078.4,706.9,1078.2,707.1,1078,707.1z M1078,703.5h-18.3V703h18.3c0.2,0,0.4,0.1,0.4,0.3
							C1078.4,703.4,1078.2,703.5,1078,703.5z M1078,699.9h-18.3v-0.5h18.3c0.2,0,0.4,0.1,0.4,0.3
							C1078.4,699.8,1078.2,699.9,1078,699.9z M1139.4,786h-5v-5h5V786z M1139.4,774h-5v-5h5V774z M1139.4,762h-5v-5h5V762z
							 M1139.4,750h-5v-5h5V750z M1139.4,738h-5v-5h5V738z M1139.4,726h-5v-5h5V726z M1139.4,714h-5v-5h5V714z M1139.4,702h-5v-5h5
							V702z M1139.4,690h-5v-5h5V690z M1149.4,786h-5v-5h5V786z M1149.4,774h-5v-5h5V774z M1149.4,762h-5v-5h5V762z M1149.4,750h-5
							v-5h5V750z M1149.4,738h-5v-5h5V738z M1149.4,726h-5v-5h5V726z M1149.4,714h-5v-5h5V714z M1149.4,702h-5v-5h5V702z
							 M1149.4,690h-5v-5h5V690z M1169.1,725.4h-2.2v-2.2h2.2V725.4z M1169.1,720h-2.2v-2.2h2.2V720z M1169.1,714.7h-2.2v-2.2h2.2
							V714.7z M1169.1,709.4h-2.2v-2.2h2.2V709.4z M1169.1,704.1h-2.2v-2.2h2.2V704.1z M1169.1,698.7h-2.2v-2.2h2.2V698.7z
							 M1169.1,693.4h-2.2v-2.2h2.2V693.4z M1169.1,688.1h-2.2v-2.2h2.2V688.1z M1169.1,682.8h-2.2v-2.2h2.2V682.8z M1173.5,725.4
							h-2.2v-2.2h2.2V725.4z M1173.5,720h-2.2v-2.2h2.2V720z M1173.5,714.7h-2.2v-2.2h2.2V714.7z M1173.5,709.4h-2.2v-2.2h2.2V709.4
							z M1173.5,704.1h-2.2v-2.2h2.2V704.1z M1173.5,698.7h-2.2v-2.2h2.2V698.7z M1173.5,693.4h-2.2v-2.2h2.2V693.4z M1173.5,688.1
							h-2.2v-2.2h2.2V688.1z M1173.5,682.8h-2.2v-2.2h2.2V682.8z M1177.7,725.4h-2.2v-2.2h2.2V725.4z M1177.7,720h-2.2v-2.2h2.2V720
							z M1177.7,714.7h-2.2v-2.2h2.2V714.7z M1177.7,709.4h-2.2v-2.2h2.2V709.4z M1177.7,704.1h-2.2v-2.2h2.2V704.1z M1177.7,698.7
							h-2.2v-2.2h2.2V698.7z M1177.7,693.4h-2.2v-2.2h2.2V693.4z M1177.7,688.1h-2.2v-2.2h2.2V688.1z M1177.7,682.8h-2.2v-2.2h2.2
							V682.8z M1182.2,725.4h-2.2v-2.2h2.2V725.4z M1182.2,720h-2.2v-2.2h2.2V720z M1182.2,714.7h-2.2v-2.2h2.2V714.7z
							 M1182.2,709.4h-2.2v-2.2h2.2V709.4z M1182.2,704.1h-2.2v-2.2h2.2V704.1z M1182.2,698.7h-2.2v-2.2h2.2V698.7z M1182.2,693.4
							h-2.2v-2.2h2.2V693.4z M1182.2,688.1h-2.2v-2.2h2.2V688.1z M1182.2,682.8h-2.2v-2.2h2.2V682.8z M1192.6,616.6
							c0-0.3,0.2-0.5,0.5-0.5s0.5,0.2,0.5,0.5v37.3c0,0.3-0.2,0.5-0.5,0.5s-0.5-0.2-0.5-0.5V616.6z M1196.7,768h-5v-5h5V768z
							 M1196.7,756h-5v-5h5V756z M1196.7,744h-5v-5h5V744z M1196.7,732h-5v-5h5V732z M1196.7,720h-5v-5h5V720z M1196.7,708h-5v-5h5
							V708z M1196.7,696h-5v-5h5V696z M1196.7,684h-5v-5h5V684z M1196.7,672h-5v-5h5V672z M1200.2,653.9c0,0.3-0.2,0.5-0.5,0.5
							s-0.5-0.2-0.5-0.5v-37.3c0-0.3,0.2-0.5,0.5-0.5s0.5,0.2,0.5,0.5V653.9z M1206.7,768h-5v-5h5V768z M1206.7,756h-5v-5h5V756z
							 M1206.7,744h-5v-5h5V744z M1206.7,732h-5v-5h5V732z M1206.7,720h-5v-5h5V720z M1206.7,708h-5v-5h5V708z M1206.7,696h-5v-5h5
							V696z M1206.7,684h-5v-5h5V684z M1206.7,672h-5v-5h5V672z M1206.9,653.9c0,0.3-0.2,0.5-0.5,0.5s-0.5-0.2-0.5-0.5v-37.3
							c0-0.3,0.2-0.5,0.5-0.5s0.5,0.2,0.5,0.5V653.9z M1251.2,716.4h-5v-5h5V716.4z M1251.2,704.4h-5v-5h5V704.4z M1251.2,692.4h-5
							v-5h5V692.4z M1251.2,680.4h-5v-5h5V680.4z M1251.2,668.4h-5v-5h5V668.4z M1251.2,656.4h-5v-5h5V656.4z M1251.2,644.4h-5v-5h5
							V644.4z M1251.2,632.4h-5v-5h5V632.4z M1251.2,620.4h-5v-5h5V620.4z M1261.2,716.4h-5v-5h5V716.4z M1261.2,704.4h-5v-5h5
							V704.4z M1261.2,692.4h-5v-5h5V692.4z M1261.2,680.4h-5v-5h5V680.4z M1261.2,668.4h-5v-5h5V668.4z M1261.2,656.4h-5v-5h5
							V656.4z M1261.2,644.4h-5v-5h5V644.4z M1261.2,632.4h-5v-5h5V632.4z M1261.2,620.4h-5v-5h5V620.4z M1300.9,735.5h-5v-5h5
							V735.5z M1300.9,723.5h-5v-5h5V723.5z M1300.9,711.5h-5v-5h5V711.5z M1300.9,699.5h-5v-5h5V699.5z M1300.9,687.5h-5v-5h5
							V687.5z M1300.9,675.5h-5v-5h5V675.5z M1300.9,663.5h-5v-5h5V663.5z M1300.9,651.5h-5v-5h5V651.5z M1300.9,639.5h-5v-5h5
							V639.5z M1310.9,735.5h-5v-5h5V735.5z M1310.9,723.5h-5v-5h5V723.5z M1310.9,711.5h-5v-5h5V711.5z M1310.9,699.5h-5v-5h5
							V699.5z M1310.9,687.5h-5v-5h5V687.5z M1310.9,675.5h-5v-5h5V675.5z M1310.9,663.5h-5v-5h5V663.5z M1310.9,651.5h-5v-5h5
							V651.5z M1310.9,639.5h-5v-5h5V639.5z M1366.1,742.3c0,1.2-0.2,2.2-0.5,2.2s-0.5-1-0.5-2.2V578.8c0-1.2,0.2-2.2,0.5-2.2
							s0.5,1,0.5,2.2V742.3z M1372.7,742.3c0,1.2-0.2,2.2-0.5,2.2s-0.5-1-0.5-2.2V578.8c0-1.2,0.2-2.2,0.5-2.2s0.5,1,0.5,2.2V742.3z
							 M1379.4,742.3c0,1.2-0.2,2.2-0.5,2.2s-0.5-1-0.5-2.2V578.8c0-1.2,0.2-2.2,0.5-2.2s0.5,1,0.5,2.2V742.3z M1445.5,599h3.7v3.7
							h-3.7V599z M1445.5,607.8h3.7v3.7h-3.7V607.8z M1445.5,616.6h3.7v3.7h-3.7V616.6z M1445.5,625.4h3.7v3.7h-3.7V625.4z
							 M1445.5,634.1h3.7v3.7h-3.7V634.1z M1445.5,642.9h3.7v3.7h-3.7V642.9z M1445.5,651.7h3.7v3.7h-3.7V651.7z M1445.5,660.5h3.7
							v3.7h-3.7V660.5z M1431.2,599h3.7v3.7h-3.7V599z M1431.2,607.8h3.7v3.7h-3.7V607.8z M1431.2,616.6h3.7v3.7h-3.7V616.6z
							 M1431.2,625.4h3.7v3.7h-3.7V625.4z M1431.2,634.1h3.7v3.7h-3.7V634.1z M1431.2,642.9h3.7v3.7h-3.7V642.9z M1431.2,651.7h3.7
							v3.7h-3.7V651.7z M1431.2,660.5h3.7v3.7h-3.7V660.5z M1427.6,672.9h-3.7v-3.7h3.7V672.9z M1427.6,664.1h-3.7v-3.7h3.7V664.1z
							 M1427.6,655.3h-3.7v-3.7h3.7V655.3z M1427.6,646.6h-3.7v-3.7h3.7V646.6z M1427.6,637.8h-3.7v-3.7h3.7V637.8z M1427.6,629
							h-3.7v-3.7h3.7V629z M1427.6,620.2h-3.7v-3.7h3.7V620.2z M1427.6,611.5h-3.7v-3.7h3.7V611.5z M1427.6,602.7h-3.7V599h3.7
							V602.7z M1431.2,669.2h3.7v3.7h-3.7V669.2z M1436.4,766.4h-2.2v-2.2h2.2V766.4z M1436.4,761.1h-2.2v-2.2h2.2V761.1z
							 M1436.4,755.8h-2.2v-2.2h2.2V755.8z M1436.4,750.4h-2.2v-2.2h2.2V750.4z M1436.4,745.1h-2.2v-2.2h2.2V745.1z M1436.4,739.8
							h-2.2v-2.2h2.2V739.8z M1436.4,734.5h-2.2v-2.2h2.2V734.5z M1436.4,729.1h-2.2v-2.2h2.2V729.1z M1436.4,723.8h-2.2v-2.2h2.2
							V723.8z M1440.8,766.4h-2.2v-2.2h2.2V766.4z M1440.8,761.1h-2.2v-2.2h2.2V761.1z M1440.8,755.8h-2.2v-2.2h2.2V755.8z
							 M1440.8,750.4h-2.2v-2.2h2.2V750.4z M1440.8,745.1h-2.2v-2.2h2.2V745.1z M1440.8,739.8h-2.2v-2.2h2.2V739.8z M1440.8,734.5
							h-2.2v-2.2h2.2V734.5z M1440.8,729.1h-2.2v-2.2h2.2V729.1z M1440.8,723.8h-2.2v-2.2h2.2V723.8z M1441.8,672.9h-3.7v-3.7h3.7
							V672.9z M1441.8,664.1h-3.7v-3.7h3.7V664.1z M1441.8,655.3h-3.7v-3.7h3.7V655.3z M1441.8,646.6h-3.7v-3.7h3.7V646.6z
							 M1441.8,637.8h-3.7v-3.7h3.7V637.8z M1441.8,629h-3.7v-3.7h3.7V629z M1441.8,620.2h-3.7v-3.7h3.7V620.2z M1441.8,611.5h-3.7
							v-3.7h3.7V611.5z M1441.8,602.7h-3.7V599h3.7V602.7z M1445,766.4h-2.2v-2.2h2.2V766.4z M1445,761.1h-2.2v-2.2h2.2V761.1z
							 M1445,755.8h-2.2v-2.2h2.2V755.8z M1445,750.4h-2.2v-2.2h2.2V750.4z M1445,745.1h-2.2v-2.2h2.2V745.1z M1445,739.8h-2.2v-2.2
							h2.2V739.8z M1445,734.5h-2.2v-2.2h2.2V734.5z M1445,729.1h-2.2v-2.2h2.2V729.1z M1445,723.8h-2.2v-2.2h2.2V723.8z
							 M1445.5,669.2h3.7v3.7h-3.7V669.2z M1449.5,766.4h-2.2v-2.2h2.2V766.4z M1449.5,761.1h-2.2v-2.2h2.2V761.1z M1449.5,755.8
							h-2.2v-2.2h2.2V755.8z M1449.5,750.4h-2.2v-2.2h2.2V750.4z M1449.5,745.1h-2.2v-2.2h2.2V745.1z M1449.5,739.8h-2.2v-2.2h2.2
							V739.8z M1449.5,734.5h-2.2v-2.2h2.2V734.5z M1449.5,729.1h-2.2v-2.2h2.2V729.1z M1449.5,723.8h-2.2v-2.2h2.2V723.8z
							 M1485.8,679.6h-2.2v-2.2h2.2V679.6z M1485.8,674.3h-2.2V672h2.2V674.3z M1485.8,668.9h-2.2v-2.2h2.2V668.9z M1485.8,663.6
							h-2.2v-2.2h2.2V663.6z M1485.8,658.3h-2.2v-2.2h2.2V658.3z M1485.8,652.9h-2.2v-2.2h2.2V652.9z M1485.8,647.6h-2.2v-2.2h2.2
							V647.6z M1485.8,642.3h-2.2v-2.2h2.2V642.3z M1485.8,637h-2.2v-2.2h2.2V637z M1490.3,679.6h-2.2v-2.2h2.2V679.6z
							 M1490.3,674.3h-2.2V672h2.2V674.3z M1490.3,668.9h-2.2v-2.2h2.2V668.9z M1490.3,663.6h-2.2v-2.2h2.2V663.6z M1490.3,658.3
							h-2.2v-2.2h2.2V658.3z M1490.3,652.9h-2.2v-2.2h2.2V652.9z M1490.3,647.6h-2.2v-2.2h2.2V647.6z M1490.3,642.3h-2.2v-2.2h2.2
							V642.3z M1490.3,637h-2.2v-2.2h2.2V637z M1494.5,679.6h-2.2v-2.2h2.2V679.6z M1494.5,674.3h-2.2V672h2.2V674.3z M1494.5,668.9
							h-2.2v-2.2h2.2V668.9z M1494.5,663.6h-2.2v-2.2h2.2V663.6z M1494.5,658.3h-2.2v-2.2h2.2V658.3z M1494.5,652.9h-2.2v-2.2h2.2
							V652.9z M1494.5,647.6h-2.2v-2.2h2.2V647.6z M1494.5,642.3h-2.2v-2.2h2.2V642.3z M1494.5,637h-2.2v-2.2h2.2V637z
							 M1498.9,679.6h-2.2v-2.2h2.2V679.6z M1498.9,674.3h-2.2V672h2.2V674.3z M1498.9,668.9h-2.2v-2.2h2.2V668.9z M1498.9,663.6
							h-2.2v-2.2h2.2V663.6z M1498.9,658.3h-2.2v-2.2h2.2V658.3z M1498.9,652.9h-2.2v-2.2h2.2V652.9z M1498.9,647.6h-2.2v-2.2h2.2
							V647.6z M1498.9,642.3h-2.2v-2.2h2.2V642.3z M1498.9,637h-2.2v-2.2h2.2V637z M1555.3,663.6h-2.2v-2.2h2.2V663.6z
							 M1555.3,658.3h-2.2v-2.2h2.2V658.3z M1555.3,652.9h-2.2v-2.2h2.2V652.9z M1555.3,647.6h-2.2v-2.2h2.2V647.6z M1555.3,642.3
							h-2.2v-2.2h2.2V642.3z M1555.3,637h-2.2v-2.2h2.2V637z M1555.3,631.6h-2.2v-2.2h2.2V631.6z M1555.3,626.3h-2.2v-2.2h2.2V626.3
							z M1555.3,621h-2.2v-2.2h2.2V621z M1559.7,663.6h-2.2v-2.2h2.2V663.6z M1559.7,658.3h-2.2v-2.2h2.2V658.3z M1559.7,652.9h-2.2
							v-2.2h2.2V652.9z M1559.7,647.6h-2.2v-2.2h2.2V647.6z M1559.7,642.3h-2.2v-2.2h2.2V642.3z M1559.7,637h-2.2v-2.2h2.2V637z
							 M1559.7,631.6h-2.2v-2.2h2.2V631.6z M1559.7,626.3h-2.2v-2.2h2.2V626.3z M1559.7,621h-2.2v-2.2h2.2V621z M1564,663.6h-2.2
							v-2.2h2.2V663.6z M1564,658.3h-2.2v-2.2h2.2V658.3z M1564,652.9h-2.2v-2.2h2.2V652.9z M1564,647.6h-2.2v-2.2h2.2V647.6z
							 M1564,642.3h-2.2v-2.2h2.2V642.3z M1564,637h-2.2v-2.2h2.2V637z M1564,631.6h-2.2v-2.2h2.2V631.6z M1564,626.3h-2.2v-2.2h2.2
							V626.3z M1564,621h-2.2v-2.2h2.2V621z M1568.4,663.6h-2.2v-2.2h2.2V663.6z M1568.4,658.3h-2.2v-2.2h2.2V658.3z M1568.4,652.9
							h-2.2v-2.2h2.2V652.9z M1568.4,647.6h-2.2v-2.2h2.2V647.6z M1568.4,642.3h-2.2v-2.2h2.2V642.3z M1568.4,637h-2.2v-2.2h2.2V637
							z M1568.4,631.6h-2.2v-2.2h2.2V631.6z M1568.4,626.3h-2.2v-2.2h2.2V626.3z M1568.4,621h-2.2v-2.2h2.2V621z M1615.8,734.3h-3.7
							v-3.7h3.7V734.3z M1615.8,725.5h-3.7v-3.7h3.7V725.5z M1615.8,716.8h-3.7v-3.7h3.7V716.8z M1615.8,708h-3.7v-3.7h3.7V708z
							 M1615.8,699.2h-3.7v-3.7h3.7V699.2z M1615.8,690.4h-3.7v-3.7h3.7V690.4z M1615.8,681.7h-3.7V678h3.7V681.7z M1615.8,672.9
							h-3.7v-3.7h3.7V672.9z M1615.8,664.1h-3.7v-3.7h3.7V664.1z M1615.8,657.2h-3.7v-3.7h3.7V657.2z M1615.8,648.4h-3.7v-3.7h3.7
							V648.4z M1615.8,639.6h-3.7V636h3.7V639.6z M1615.8,630.8h-3.7v-3.7h3.7V630.8z M1615.8,622.1h-3.7v-3.7h3.7V622.1z
							 M1615.8,613.3h-3.7v-3.7h3.7V613.3z M1615.8,604.5h-3.7v-3.7h3.7V604.5z M1615.8,595.7h-3.7v-3.7h3.7V595.7z M1615.8,587
							h-3.7v-3.7h3.7V587z M1623.1,734.3h-3.7v-3.7h3.7V734.3z M1623.1,725.5h-3.7v-3.7h3.7V725.5z M1623.1,716.8h-3.7v-3.7h3.7
							V716.8z M1623.1,708h-3.7v-3.7h3.7V708z M1623.1,699.2h-3.7v-3.7h3.7V699.2z M1623.1,690.4h-3.7v-3.7h3.7V690.4z
							 M1623.1,681.7h-3.7V678h3.7V681.7z M1623.1,672.9h-3.7v-3.7h3.7V672.9z M1623.1,664.1h-3.7v-3.7h3.7V664.1z M1623.1,657.2
							h-3.7v-3.7h3.7V657.2z M1623.1,648.4h-3.7v-3.7h3.7V648.4z M1623.1,639.6h-3.7V636h3.7V639.6z M1623.1,630.8h-3.7v-3.7h3.7
							V630.8z M1623.1,622.1h-3.7v-3.7h3.7V622.1z M1623.1,613.3h-3.7v-3.7h3.7V613.3z M1623.1,604.5h-3.7v-3.7h3.7V604.5z
							 M1623.1,595.7h-3.7v-3.7h3.7V595.7z M1623.1,587h-3.7v-3.7h3.7V587z M1630.1,734.3h-3.7v-3.7h3.7V734.3z M1630.1,725.5h-3.7
							v-3.7h3.7V725.5z M1630.1,716.8h-3.7v-3.7h3.7V716.8z M1630.1,708h-3.7v-3.7h3.7V708z M1630.1,699.2h-3.7v-3.7h3.7V699.2z
							 M1630.1,690.4h-3.7v-3.7h3.7V690.4z M1630.1,681.7h-3.7V678h3.7V681.7z M1630.1,672.9h-3.7v-3.7h3.7V672.9z M1630.1,664.1
							h-3.7v-3.7h3.7V664.1z M1630.1,657.2h-3.7v-3.7h3.7V657.2z M1630.1,648.4h-3.7v-3.7h3.7V648.4z M1630.1,639.6h-3.7V636h3.7
							V639.6z M1630.1,630.8h-3.7v-3.7h3.7V630.8z M1630.1,622.1h-3.7v-3.7h3.7V622.1z M1630.1,613.3h-3.7v-3.7h3.7V613.3z
							 M1630.1,604.5h-3.7v-3.7h3.7V604.5z M1630.1,595.7h-3.7v-3.7h3.7V595.7z M1630.1,587h-3.7v-3.7h3.7V587z M1637.4,734.3h-3.7
							v-3.7h3.7V734.3z M1637.4,725.5h-3.7v-3.7h3.7V725.5z M1637.4,716.8h-3.7v-3.7h3.7V716.8z M1637.4,708h-3.7v-3.7h3.7V708z
							 M1637.4,699.2h-3.7v-3.7h3.7V699.2z M1637.4,690.4h-3.7v-3.7h3.7V690.4z M1637.4,681.7h-3.7V678h3.7V681.7z M1637.4,672.9
							h-3.7v-3.7h3.7V672.9z M1637.4,664.1h-3.7v-3.7h3.7V664.1z M1637.4,657.2h-3.7v-3.7h3.7V657.2z M1637.4,648.4h-3.7v-3.7h3.7
							V648.4z M1637.4,639.6h-3.7V636h3.7V639.6z M1637.4,630.8h-3.7v-3.7h3.7V630.8z M1637.4,622.1h-3.7v-3.7h3.7V622.1z
							 M1637.4,613.3h-3.7v-3.7h3.7V613.3z M1637.4,604.5h-3.7v-3.7h3.7V604.5z M1637.4,595.7h-3.7v-3.7h3.7V595.7z M1637.4,587
							h-3.7v-3.7h3.7V587z"/>
					</g>
				</g>
				<g id="XMLID_10793_">
					<g id="XMLID_10794_">
						<path id="XMLID_10795_" class="st2" d="M1155,485.4c0,3.2,1.4,5.7,3.2,5.7l23.6,0v0.2h1.3v-0.2l15.2,0c1.8,0,3.2-2.6,3.2-5.7
							c0-3.2-1.4-5.7-3.2-5.7l-15.2,0v-87l38.7,0.5l0.2,0.2l0.2-0.2l63.9,0.8v28.7h0l12.1,27.3l15.4,1.6l-4.4,143.3l-10.1,1.2
							l-1.4,3l-22.4,22.4v80.4h-3.7V911h109.1V666.6h-4.4v-24.3v-19.8l-10.8-37.7l-6.2,18.2l-0.6-2l-9.3-3.1v-15.8l-1.2-1.2
							l6.7-175.7v14.5h11.7h25.6v-24.7l5.5,0.1l-24.5-22.6h-2.3l-34.4-38l-0.2,0l-137.8,38h-7.4l-19.9,19.9l10.5,0.1v87l-23.3,0
							l0,0.1c-0.1,0-0.2-0.1-0.3-0.1C1156.4,479.7,1155,482.2,1155,485.4z M1349.5,634.7l4.5-1.3v7.2h-4.5V634.7z M1305.5,825.6
							c0,1.6-0.3,3-0.7,3c-0.4,0-0.7-1.3-0.7-3V632.2l1.3,0.6V825.6z M1194.1,376.8l-5.8,5.8l-0.5-0.7l5.2-5.2H1194.1z
							 M1206.5,376.8l-4,4.1l-4.1-4.1H1206.5z M1336.3,335.3l-20.7,29.9h0.7l-0.2,7.4h-115.2L1336.3,335.3z M1224.3,376.8l-7.8,7.8
							l-5.6-7.8H1224.3z M1237.7,376.8l-4.5,4.5l-4.5-4.5H1237.7z M1255.5,376.8l-6.6,6.6l-6.6-6.6H1255.5z M1273.5,376.8l-6.6,6.6
							l-6.6-6.6H1273.5z M1289.7,376.8l-5.9,5.9l-5.9-5.9H1289.7z M1308.5,376.8l-6.9,6.9l-6.9-6.9H1308.5z M1315.9,379.1l-2.3-2.3
							h2.3L1315.9,379.1z M1316.2,546.1l5.1,7.8l-5.6,8.1L1316.2,546.1z M1317,521.2l5.6,7.9l-6.1,8.1L1317,521.2z M1317.8,495.5
							l5.7,9.4l-6.2,8L1317.8,495.5z M1318.5,471.4l5,8.3l-5.4,6.9L1318.5,471.4z M1328.6,452.2l-3.4,3.7l-2.5-3.7H1328.6z
							 M1321,390.1l0.1-4.8l4.9,4.9L1321,390.1z M1324.8,456.3l-6.1,6.6l0.3-11l2.9,0.3L1324.8,456.3z M1325.4,376.8l-4.1,4.1
							l0.1-4.1H1325.4z M1321.5,372.6l0.1-2.4h11.8l-0.1,2.4H1321.5z M1334.9,498.5l5,7.6l-5.5,7.2L1334.9,498.5z M1335.7,472.9
							l5.1,8.5l-5.6,8L1335.7,472.9z M1338.2,452.2v-7.7l4,8.5l-6.2,9.8l0.3-10.6H1338.2z M1338.2,422.7l5,6.9l-5,6.7V422.7z
							 M1338.2,396.8l5.3,8.7l-5.3,6.8V396.8z M1373.2,378.2l-3.1,3.1l-4.5-4.5h6.1L1373.2,378.2z M1381.5,385.9l5.4,5l-5.4-0.1
							V385.9z M1379.5,390.8l-9-9l3.1-3.1l7.2,6.7v5.5L1379.5,390.8z M1361.7,390.5l8.3-8.3l8.5,8.5L1361.7,390.5z M1361.2,390.3
							l-5.3-5.3l0.1-2.3l5.9-5.9h3l4.9,4.9L1361.2,390.3z M1355.9,381.8l0.2-5h4.8L1355.9,381.8z M1355.6,390.5l0.2-4.7l4.8,4.8
							L1355.6,390.5z M1337.8,336.7l32.5,35.9h-13.9l0.3-7.4h0.5L1337.8,336.7z M1343.7,376.8h3.1l0,0l-7,10.1l-1.5-1.5l0.1-3.3
							L1343.7,376.8z M1338.5,381.2l0.1-4.4h4.2L1338.5,381.2z M1340,387.9l2.4,2.4l-4,0L1340,387.9z M1338.3,389.4l0.1-3.1l1.2,1.2
							L1338.3,389.4z M1350.9,371.1l-1.1,1.5h-11.1l0.1-2.4h12.1L1350.9,371.1z M1350.8,372.6h-0.3l0.3-0.4L1350.8,372.6z
							 M1350.6,379.7l-2.9-2.9h3L1350.6,379.7z M1350.3,387.5l-2.9,2.9l-4.1,0l-2.9-2.9l7-10.1l3.2,3.2L1350.3,387.5z M1350.2,390.4
							l-2,0l2-2L1350.2,390.4z M1349.9,397.2l-6,7.7l-5.7-9.3v-1.1l11.8,0.1L1349.9,397.2z M1349.3,413.8l-5-8.3l5.6-7.2
							L1349.3,413.8z M1349,421.9l-5.4,7.2l-5.4-7.4v-8.4l5.6-7.2l5.4,8.9L1349,421.9z M1348.4,435.8l-4.5-6.1l4.9-6.6L1348.4,435.8
							z M1348.1,443.8l-5.5,8.7l-4.4-9.4v-5.8l5.4-7.2l4.8,6.6L1348.1,443.8z M1347.4,462.8l-4.5-9.7l5.2-8.2L1347.4,462.8z
							 M1347,472.4l-5.9,8.4l-5.4-9.1l0.2-7.7l6.5-10.3l4.9,10.4L1347,472.4z M1346.4,489.7l-4.9-8.3l5.5-7.9L1346.4,489.7z
							 M1346.1,497.9l-5.8,7.7l-5.4-8.1l0.2-7l5.9-8.5l5.2,8.9L1346.1,497.9z M1345.5,513.5l-4.8-7.4l5.4-7.2L1345.5,513.5z
							 M1345.2,521.1l-5.7,7.5l-5.3-7.7l0.2-6.5l5.8-7.8l5.2,7.9L1345.2,521.1z M1344.6,536.1l-4.8-6.9l5.3-6.9L1344.6,536.1z
							 M1343.2,571.7L1343.2,571.7v0.8V571.7z M1343.2,562.2l0.4,0.6l-0.3,7.6l-0.1,0.1V562.2z M1341.4,549.9l2.9-4.5l-0.6,16.3
							l-0.4-0.7v-3.1L1341.4,549.9z M1337.3,532.5l2.2-2.8l5.1,7.5l-0.3,7.1l-3.1,4.8L1337.3,532.5z M1336.7,532.2l-3,3.9l0.4-14.2
							l4.9,7.2l-2,2.6l-0.2-0.7L1336.7,532.2z M1334.4,545.8l-0.9-1.6l0.2-7.1l2.8-3.7L1334.4,545.8z M1333.2,552.5l0.2-7.1l0.8,1.3
							L1333.2,552.5z M1333.1,380.1l-3.3-3.3h3.4L1333.1,380.1z M1332.9,386.8l-3.3,3.3l-2.7,0l-5.7-5.7l0.1-2.6l5-5h2.7l4.1,4.1
							L1332.9,386.8z M1332.8,390.2l-2.4,0l2.5-2.5L1332.8,390.2z M1330.5,463.6l-4.9-7.2l3.7-4l-0.2-0.2h1.8L1330.5,463.6z
							 M1330.3,471l-6.4,8.2l-5.3-9l0.2-6.4l6.4-7l5.3,7.8L1330.3,471z M1329.7,489.1l-5.5-9.3l6.1-7.7L1329.7,489.1z M1329.5,497.1
							l-5.6,7.2l-6.1-10l0.2-6.8l5.8-7.3l5.9,9.9L1329.5,497.1z M1329,512.8l-4.8-7.9l5.3-6.8L1329,512.8z M1328.8,520.9l-5.8,7.7
							l-6-8.4l0.2-6.3l6.6-8.5l5.2,8.5L1328.8,520.9z M1328.3,536.1l-5-7l5.4-7.2L1328.3,536.1z M1328.1,543.9l-6.4,9.3l-5.4-8.3
							l0.2-6.7l6.5-8.7l5.3,7.5L1328.1,543.9z M1327.5,562.2l-5.5-8.4l6-8.8L1327.5,562.2z M1327.3,569.1l-7.5,7.7l-4.3-6.6l0.2-7.1
							l6-8.7l5.8,8.9L1327.3,569.1z M1319.3,577.2l-4.2,4.3l0.3-10.3L1319.3,577.2z M1327,579.6l-1.7,1.7v4l-5.2-7.9l7.1-7.3
							L1327,579.6z M1322.1,640.2l1.3,0.6v184.8c0,1.6-0.3,3-0.7,3s-0.7-1.3-0.7-3V640.2z M1314.8,594l0.4-11.6l4.6-4.7l5.6,8.6v6.4
							L1314.8,594z M1314.5,636.8v188.8c0,1.6-0.3,3-0.7,3c-0.4,0-0.7-1.3-0.7-3V636.2L1314.5,636.8z M1313.1,390l2.5-2.5l-0.1,2.5
							L1313.1,390z M1307.8,389.9l-5.8-5.8l7.3-7.3h3.4l3.1,3.1l-0.2,6.6l-3.4,3.4L1307.8,389.9z M1296.4,389.8l5.2-5.2l5.3,5.3
							L1296.4,389.8z M1290.7,389.7l-6.5-6.5l6.3-6.3h3.4l7.3,7.3l-5.6,5.6L1290.7,389.7z M1277.8,389.5l6-6l6.1,6.1L1277.8,389.5z
							 M1273,389.5l-5.7-5.7l7-7h2.7l6.3,6.3l-6.4,6.4L1273,389.5z M1261.8,389.3l5.1-5.1l5.2,5.2L1261.8,389.3z M1254.8,389.3
							l-5.4-5.4l7-7h3.1l7,7l-5.5,5.5L1254.8,389.3z M1244.1,389.1l4.9-4.9l5,5L1244.1,389.1z M1240.9,389.1l-7.3-7.3l4.9-4.9h3l7,7
							l-5.3,5.3L1240.9,389.1z M1226.4,388.9l6.7-6.7l6.9,6.9L1226.4,388.9z M1219.5,388.8l-2.6-3.7l8.3-8.3h2.6l4.9,4.9l-7.2,7.2
							L1219.5,388.8z M1213.2,388.8l3.2-3.2l2.3,3.3L1213.2,388.8z M1210.3,388.7l-7.4-7.4l4.4-4.6h2.8l5.9,8.3l-3.7,3.7
							L1210.3,388.7z M1196,388.6l6.5-6.7l6.9,6.9L1196,388.6z M1192.4,388.5l-3.8-5.4l6.3-6.3h2.6l4.6,4.6l-6.9,7.2L1192.4,388.5z
							 M1183.3,388.4l4.8-4.8l3.5,4.9L1183.3,388.4z M1181.4,388.4l6-6l0.5,0.7l-5.3,5.3h0L1181.4,388.4z"/>
					</g>
				</g>
			</g>
		</g>
		<rect id="XMLID_771_" y="795.8" class="st3" width="1400" height="184.2"/>
		<path id="XMLID_266_" class="st4" d="M1011.7,873.7c0,0-239,39.4-533.8,39.4s-533.8-70.8-533.8-70.8s239-8,533.8-8
			S1011.7,873.7,1011.7,873.7z"/>
		<g id="XMLID_110_">
			<polygon id="XMLID_109_" class="st5" points="533.7,251.3 533.7,174.3 578.5,142.3 578.5,138.2 533.7,138.2 496,138.2 
				451.5,138.2 451.5,142.6 496,174.3 496,251.3 451.5,283.1 451.5,287.5 496,287.5 533.7,287.5 578.5,287.5 578.5,283.3 			"/>
			<polygon id="XMLID_58_" class="st5" points="61.1,430.1 61.1,409.6 73,401.1 73,400 61.1,400 51.1,400 39.3,400 39.3,401.2 
				51.1,409.6 51.1,430.1 39.3,438.5 39.3,439.7 51.1,439.7 61.1,439.7 73,439.7 73,438.6 			"/>
			<polygon id="XMLID_55_" class="st6" points="451.5,138.2 39.3,400 39.3,401.2 451.5,142.6 			"/>
			<polygon id="XMLID_1_" class="st7" points="496,174.3 51.1,409.6 39.3,401.2 451.5,142.6 			"/>
			<polygon id="XMLID_59_" class="st8" points="496,174.3 51.1,409.6 51.1,430.1 496,251.3 			"/>
			<polygon id="XMLID_61_" class="st6" points="451.5,283.1 39.3,438.5 39.3,439.7 451.5,287.5 			"/>
			<polygon id="XMLID_62_" class="st9" points="496,251.3 51.1,430.1 39.3,438.5 451.5,283.1 			"/>
			<polygon id="XMLID_67_" class="st7" points="578.5,287.5 73,439.7 39.3,439.7 451.5,287.5 			"/>
			<g id="XMLID_68_">
				<g id="XMLID_310_">
					<circle id="XMLID_317_" class="st7" cx="515" cy="155.1" r="6.8"/>
					<circle id="XMLID_314_" class="st8" cx="514.4" cy="154.1" r="5.6"/>
					<circle id="XMLID_311_" class="st5" cx="513" cy="151.9" r="1.5"/>
				</g>
				<g id="XMLID_106_">
					<circle id="XMLID_134_" class="st7" cx="515" cy="193.6" r="6.8"/>
					<circle id="XMLID_121_" class="st8" cx="514.4" cy="192.5" r="5.6"/>
					<circle id="XMLID_108_" class="st5" cx="513" cy="190.3" r="1.5"/>
				</g>
				<g id="XMLID_136_">
					<circle id="XMLID_143_" class="st7" cx="515" cy="232.1" r="6.8"/>
					<circle id="XMLID_140_" class="st8" cx="514.4" cy="231" r="5.6"/>
					<circle id="XMLID_137_" class="st5" cx="513" cy="228.8" r="1.5"/>
				</g>
				<g id="XMLID_144_">
					<circle id="XMLID_160_" class="st7" cx="515" cy="270.5" r="6.8"/>
					<circle id="XMLID_157_" class="st8" cx="514.4" cy="269.5" r="5.6"/>
					<circle id="XMLID_153_" class="st5" cx="513" cy="267.3" r="1.5"/>
				</g>
			</g>
		</g>
		<g id="XMLID_185_">
			<g id="XMLID_703_">
				<g id="XMLID_704_">
					<polygon id="XMLID_746_" class="st5" points="895.1,700.8 895.1,623.8 939.9,591.8 939.9,587.7 895.1,587.7 857.4,587.7 
						812.9,587.7 812.9,592 857.4,623.8 857.4,700.8 812.9,732.6 812.9,737 857.4,737 895.1,737 939.9,737 939.9,732.8 					"/>
					<g id="XMLID_705_">
						<g id="XMLID_736_">
							<circle id="XMLID_743_" class="st7" cx="876.4" cy="604.6" r="6.8"/>
							<circle id="XMLID_740_" class="st8" cx="875.8" cy="603.5" r="5.6"/>
							<circle id="XMLID_737_" class="st5" cx="874.3" cy="601.4" r="1.5"/>
						</g>
						<g id="XMLID_726_">
							<circle id="XMLID_733_" class="st7" cx="876.4" cy="643.1" r="6.8"/>
							<circle id="XMLID_730_" class="st8" cx="875.8" cy="642" r="5.6"/>
							<circle id="XMLID_727_" class="st5" cx="874.3" cy="639.8" r="1.5"/>
						</g>
						<g id="XMLID_716_">
							<circle id="XMLID_723_" class="st7" cx="876.4" cy="681.6" r="6.8"/>
							<circle id="XMLID_720_" class="st8" cx="875.8" cy="680.5" r="5.6"/>
							<circle id="XMLID_717_" class="st5" cx="874.3" cy="678.3" r="1.5"/>
						</g>
						<g id="XMLID_706_">
							<circle id="XMLID_713_" class="st7" cx="876.4" cy="720" r="6.8"/>
							<circle id="XMLID_710_" class="st8" cx="875.8" cy="719" r="5.6"/>
							<circle id="XMLID_707_" class="st5" cx="874.3" cy="716.8" r="1.5"/>
						</g>
					</g>
				</g>
				<polygon id="XMLID_768_" class="st5" points="422,790.4 422,769.9 433.9,761.4 433.9,760.3 422,760.3 412,760.3 400.2,760.3 
					400.2,761.5 412,769.9 412,790.4 400.2,798.8 400.2,800 412,800 422,800 433.9,800 433.9,798.9 				"/>
				<g id="XMLID_749_">
					<polygon id="XMLID_765_" class="st6" points="812.9,587.7 400.2,760.3 400.2,761.5 812.9,592 					"/>
					<polygon id="XMLID_762_" class="st7" points="857.4,623.8 412,769.9 400.2,761.5 812.9,592 					"/>
					<polygon id="XMLID_759_" class="st8" points="857.4,623.8 412,769.9 412,790.4 857.4,700.8 					"/>
					<polygon id="XMLID_756_" class="st6" points="812.9,732.6 400.2,798.8 400.2,800 812.9,737 					"/>
					<polygon id="XMLID_753_" class="st9" points="857.4,700.8 412,790.4 400.2,798.8 812.9,732.6 					"/>
					<polygon id="XMLID_750_" class="st7" points="939.9,737 433.9,800 400.2,800 812.9,737 					"/>
				</g>
			</g>
			<g id="XMLID_567_">
				<g id="XMLID_613_">
					<polygon id="XMLID_629_" class="st6" points="812.9,734.9 400.2,797.2 400.2,798.4 812.9,739.3 					"/>
					<polygon id="XMLID_626_" class="st7" points="857.4,771.1 412,806.8 400.2,798.4 812.9,739.3 					"/>
					<polygon id="XMLID_623_" class="st8" points="857.4,771.1 412,806.8 412,827.3 857.4,848.1 					"/>
					<polygon id="XMLID_620_" class="st6" points="812.9,879.9 400.2,835.7 400.2,836.9 812.9,884.3 					"/>
					<polygon id="XMLID_617_" class="st9" points="857.4,848.1 412,827.3 400.2,835.7 812.9,879.9 					"/>
					<polygon id="XMLID_614_" class="st7" points="939.9,884.3 433.9,836.9 400.2,836.9 812.9,884.3 					"/>
				</g>
				<g id="XMLID_568_">
					<polygon id="XMLID_610_" class="st5" points="895.1,848.1 895.1,771.1 939.9,739.1 939.9,734.9 895.1,734.9 857.4,734.9 
						812.9,734.9 812.9,739.3 857.4,771.1 857.4,848.1 812.9,879.9 812.9,884.3 857.4,884.3 895.1,884.3 939.9,884.3 939.9,880.1 
											"/>
					<g id="XMLID_569_">
						<g id="XMLID_600_">
							<circle id="XMLID_607_" class="st7" cx="876.4" cy="751.9" r="6.8"/>
							<circle id="XMLID_604_" class="st8" cx="875.8" cy="750.8" r="5.6"/>
							<circle id="XMLID_601_" class="st5" cx="874.3" cy="748.6" r="1.5"/>
						</g>
						<g id="XMLID_590_">
							<circle id="XMLID_597_" class="st7" cx="876.4" cy="790.4" r="6.8"/>
							<circle id="XMLID_594_" class="st8" cx="875.8" cy="789.3" r="5.6"/>
							<circle id="XMLID_591_" class="st5" cx="874.3" cy="787.1" r="1.5"/>
						</g>
						<g id="XMLID_580_">
							<circle id="XMLID_587_" class="st7" cx="876.4" cy="828.8" r="6.8"/>
							<circle id="XMLID_584_" class="st8" cx="875.8" cy="827.8" r="5.6"/>
							<circle id="XMLID_581_" class="st5" cx="874.3" cy="825.6" r="1.5"/>
						</g>
						<g id="XMLID_570_">
							<circle id="XMLID_577_" class="st7" cx="876.4" cy="867.3" r="6.8"/>
							<circle id="XMLID_574_" class="st8" cx="875.8" cy="866.2" r="5.6"/>
							<circle id="XMLID_571_" class="st5" cx="874.3" cy="864.1" r="1.5"/>
						</g>
					</g>
				</g>
				<polygon id="XMLID_632_" class="st5" points="422,827.3 422,806.8 433.9,798.3 433.9,797.2 422,797.2 412,797.2 400.2,797.2 
					400.2,798.4 412,806.8 412,827.3 400.2,835.7 400.2,836.9 412,836.9 422,836.9 433.9,836.9 433.9,835.8 				"/>
			</g>
			<g id="XMLID_635_">
				<polygon id="XMLID_700_" class="st5" points="287.8,794.2 287.8,773.8 299.7,765.3 299.7,764.1 287.8,764.1 277.8,764.1 
					266,764.1 266,765.3 277.8,773.8 277.8,794.2 266,802.7 266,803.8 277.8,803.8 287.8,803.8 299.7,803.8 299.7,802.7 				"/>
				<g id="XMLID_681_">
					<polygon id="XMLID_682_" class="st7" points="805.7,740.8 299.7,803.8 266,803.8 678.7,740.8 					"/>
					<polygon id="XMLID_697_" class="st6" points="678.7,591.5 266,764.1 266,765.3 678.7,595.9 					"/>
					<polygon id="XMLID_694_" class="st7" points="723.2,627.7 277.8,773.8 266,765.3 678.7,595.9 					"/>
					<polygon id="XMLID_691_" class="st8" points="723.2,627.7 277.8,773.8 277.8,794.2 723.2,704.7 					"/>
					<polygon id="XMLID_688_" class="st6" points="678.7,736.4 266,802.7 266,803.8 678.7,740.8 					"/>
					<polygon id="XMLID_685_" class="st9" points="723.2,704.7 277.8,794.2 266,802.7 678.7,736.4 					"/>
				</g>
				<g id="XMLID_636_">
					<polygon id="XMLID_678_" class="st5" points="760.9,704.7 760.9,627.7 805.7,595.7 805.7,591.5 760.9,591.5 723.2,591.5 
						678.7,591.5 678.7,595.9 723.2,627.7 723.2,704.7 678.7,736.4 678.7,740.8 723.2,740.8 760.9,740.8 805.7,740.8 805.7,736.7 
											"/>
					<g id="XMLID_637_">
						<g id="XMLID_668_">
							<circle id="XMLID_675_" class="st7" cx="742.2" cy="608.5" r="6.8"/>
							<circle id="XMLID_672_" class="st8" cx="741.7" cy="607.4" r="5.6"/>
							<circle id="XMLID_669_" class="st5" cx="740.2" cy="605.2" r="1.5"/>
						</g>
						<g id="XMLID_658_">
							<circle id="XMLID_665_" class="st7" cx="742.2" cy="646.9" r="6.8"/>
							<circle id="XMLID_662_" class="st8" cx="741.7" cy="645.8" r="5.6"/>
							<circle id="XMLID_659_" class="st5" cx="740.2" cy="643.7" r="1.5"/>
						</g>
						<g id="XMLID_648_">
							<circle id="XMLID_655_" class="st7" cx="742.2" cy="685.4" r="6.8"/>
							<circle id="XMLID_652_" class="st8" cx="741.7" cy="684.3" r="5.6"/>
							<circle id="XMLID_649_" class="st5" cx="740.2" cy="682.1" r="1.5"/>
						</g>
						<g id="XMLID_638_">
							<circle id="XMLID_645_" class="st7" cx="742.2" cy="723.9" r="6.8"/>
							<circle id="XMLID_642_" class="st8" cx="741.7" cy="722.8" r="5.6"/>
							<circle id="XMLID_639_" class="st5" cx="740.2" cy="720.6" r="1.5"/>
						</g>
					</g>
				</g>
			</g>
			<g id="XMLID_499_">
				<polygon id="XMLID_564_" class="st5" points="279.1,832.7 279.1,812.2 291,803.7 291,802.6 279.1,802.6 269.1,802.6 
					257.3,802.6 257.3,803.8 269.1,812.2 269.1,832.7 257.3,841.1 257.3,842.3 269.1,842.3 279.1,842.3 291,842.3 291,841.2 				"/>
				<g id="XMLID_545_">
					<polygon id="XMLID_546_" class="st7" points="797,889.7 291,842.3 257.3,842.3 670,889.7 					"/>
					<polygon id="XMLID_561_" class="st6" points="670,740.3 257.3,802.6 257.3,803.8 670,744.7 					"/>
					<polygon id="XMLID_558_" class="st7" points="714.5,776.5 269.1,812.2 257.3,803.8 670,744.7 					"/>
					<polygon id="XMLID_555_" class="st8" points="714.5,776.5 269.1,812.2 269.1,832.7 714.5,853.5 					"/>
					<polygon id="XMLID_552_" class="st6" points="670,885.3 257.3,841.1 257.3,842.3 670,889.7 					"/>
					<polygon id="XMLID_549_" class="st9" points="714.5,853.5 269.1,832.7 257.3,841.1 670,885.3 					"/>
				</g>
				<g id="XMLID_500_">
					<polygon id="XMLID_542_" class="st5" points="752.2,853.5 752.2,776.5 797,744.5 797,740.3 752.2,740.3 714.5,740.3 670,740.3 
						670,744.7 714.5,776.5 714.5,853.5 670,885.3 670,889.7 714.5,889.7 752.2,889.7 797,889.7 797,885.5 					"/>
					<g id="XMLID_501_">
						<g id="XMLID_532_">
							<circle id="XMLID_539_" class="st7" cx="733.5" cy="757.3" r="6.8"/>
							<circle id="XMLID_536_" class="st8" cx="733" cy="756.2" r="5.6"/>
							<circle id="XMLID_533_" class="st5" cx="731.5" cy="754" r="1.5"/>
						</g>
						<g id="XMLID_522_">
							<circle id="XMLID_529_" class="st7" cx="733.5" cy="795.8" r="6.8"/>
							<circle id="XMLID_526_" class="st8" cx="733" cy="794.7" r="5.6"/>
							<circle id="XMLID_523_" class="st5" cx="731.5" cy="792.5" r="1.5"/>
						</g>
						<g id="XMLID_512_">
							<circle id="XMLID_519_" class="st7" cx="733.5" cy="834.2" r="6.8"/>
							<circle id="XMLID_516_" class="st8" cx="733" cy="833.2" r="5.6"/>
							<circle id="XMLID_513_" class="st5" cx="731.5" cy="831" r="1.5"/>
						</g>
						<g id="XMLID_502_">
							<circle id="XMLID_509_" class="st7" cx="733.5" cy="872.7" r="6.8"/>
							<circle id="XMLID_506_" class="st8" cx="733" cy="871.6" r="5.6"/>
							<circle id="XMLID_503_" class="st5" cx="731.5" cy="869.5" r="1.5"/>
						</g>
					</g>
				</g>
			</g>
			<g id="XMLID_404_">
				<polygon id="XMLID_496_" class="st5" points="139.1,790.4 139.1,769.9 151,761.4 151,760.3 139.1,760.3 129.1,760.3 
					117.3,760.3 117.3,761.5 129.1,769.9 129.1,790.4 117.3,798.8 117.3,800 129.1,800 139.1,800 151,800 151,798.9 				"/>
				<g id="XMLID_477_">
					<polygon id="XMLID_493_" class="st6" points="530,587.7 117.3,760.3 117.3,761.5 530,592 					"/>
					<polygon id="XMLID_490_" class="st7" points="574.5,623.8 129.1,769.9 117.3,761.5 530,592 					"/>
					<polygon id="XMLID_487_" class="st8" points="574.5,623.8 129.1,769.9 129.1,790.4 574.5,700.8 					"/>
					<polygon id="XMLID_484_" class="st6" points="530,732.6 117.3,798.8 117.3,800 530,737 					"/>
					<polygon id="XMLID_481_" class="st9" points="574.5,700.8 129.1,790.4 117.3,798.8 530,732.6 					"/>
					<polygon id="XMLID_478_" class="st7" points="657,737 151,800 117.3,800 530,737 					"/>
				</g>
				<g id="XMLID_405_">
					<polygon id="XMLID_474_" class="st5" points="612.2,700.8 612.2,623.8 657,591.8 657,587.7 612.2,587.7 574.5,587.7 530,587.7 
						530,592 574.5,623.8 574.5,700.8 530,732.6 530,737 574.5,737 612.2,737 657,737 657,732.8 					"/>
					<g id="XMLID_407_">
						<g id="XMLID_464_">
							<circle id="XMLID_471_" class="st7" cx="593.5" cy="604.6" r="6.8"/>
							<circle id="XMLID_468_" class="st8" cx="593" cy="603.5" r="5.6"/>
							<circle id="XMLID_465_" class="st5" cx="591.5" cy="601.4" r="1.5"/>
						</g>
						<g id="XMLID_454_">
							<circle id="XMLID_461_" class="st7" cx="593.5" cy="643.1" r="6.8"/>
							<circle id="XMLID_458_" class="st8" cx="593" cy="642" r="5.6"/>
							<circle id="XMLID_455_" class="st5" cx="591.5" cy="639.8" r="1.5"/>
						</g>
						<g id="XMLID_444_">
							<circle id="XMLID_451_" class="st7" cx="593.5" cy="681.6" r="6.8"/>
							<circle id="XMLID_448_" class="st8" cx="593" cy="680.5" r="5.6"/>
							<circle id="XMLID_445_" class="st5" cx="591.5" cy="678.3" r="1.5"/>
						</g>
						<g id="XMLID_408_">
							<circle id="XMLID_441_" class="st7" cx="593.5" cy="720" r="6.8"/>
							<circle id="XMLID_419_" class="st8" cx="593" cy="719" r="5.6"/>
							<circle id="XMLID_410_" class="st5" cx="591.5" cy="716.8" r="1.5"/>
						</g>
					</g>
				</g>
			</g>
			<g id="XMLID_187_">
				<polygon id="XMLID_360_" class="st5" points="139.1,827.3 139.1,806.8 151,798.3 151,797.2 139.1,797.2 129.1,797.2 
					117.3,797.2 117.3,798.4 129.1,806.8 129.1,827.3 117.3,835.7 117.3,836.9 129.1,836.9 139.1,836.9 151,836.9 151,835.8 				"/>
				<g id="XMLID_341_">
					<polygon id="XMLID_357_" class="st6" points="530,734.9 117.3,797.2 117.3,798.4 530,739.3 					"/>
					<polygon id="XMLID_354_" class="st7" points="574.5,771.1 129.1,806.8 117.3,798.4 530,739.3 					"/>
					<polygon id="XMLID_351_" class="st8" points="574.5,771.1 129.1,806.8 129.1,827.3 574.5,848.1 					"/>
					<polygon id="XMLID_348_" class="st6" points="530,879.9 117.3,835.7 117.3,836.9 530,884.3 					"/>
					<polygon id="XMLID_345_" class="st9" points="574.5,848.1 129.1,827.3 117.3,835.7 530,879.9 					"/>
					<polygon id="XMLID_342_" class="st7" points="657,884.3 151,836.9 117.3,836.9 530,884.3 					"/>
				</g>
				<g id="XMLID_190_">
					<polygon id="XMLID_338_" class="st5" points="612.2,848.1 612.2,771.1 657,739.1 657,734.9 612.2,734.9 574.5,734.9 530,734.9 
						530,739.3 574.5,771.1 574.5,848.1 530,879.9 530,884.3 574.5,884.3 612.2,884.3 657,884.3 657,880.1 					"/>
					<g id="XMLID_192_">
						<g id="XMLID_328_">
							<circle id="XMLID_335_" class="st7" cx="593.5" cy="751.9" r="6.8"/>
							<circle id="XMLID_332_" class="st8" cx="593" cy="750.8" r="5.6"/>
							<circle id="XMLID_329_" class="st5" cx="591.5" cy="748.6" r="1.5"/>
						</g>
						<g id="XMLID_318_">
							<circle id="XMLID_325_" class="st7" cx="593.5" cy="790.4" r="6.8"/>
							<circle id="XMLID_322_" class="st8" cx="593" cy="789.3" r="5.6"/>
							<circle id="XMLID_319_" class="st5" cx="591.5" cy="787.1" r="1.5"/>
						</g>
						<g id="XMLID_301_">
							<circle id="XMLID_313_" class="st7" cx="593.5" cy="828.8" r="6.8"/>
							<circle id="XMLID_308_" class="st8" cx="593" cy="827.8" r="5.6"/>
							<circle id="XMLID_304_" class="st5" cx="591.5" cy="825.6" r="1.5"/>
						</g>
						<g id="XMLID_193_">
							<circle id="XMLID_273_" class="st7" cx="593.5" cy="867.3" r="6.8"/>
							<circle id="XMLID_269_" class="st8" cx="593" cy="866.2" r="5.6"/>
							<circle id="XMLID_201_" class="st5" cx="591.5" cy="864.1" r="1.5"/>
						</g>
					</g>
				</g>
			</g>
			<g id="XMLID_260_">
				<polygon id="XMLID_421_" class="st5" points="5,794.2 5,773.8 16.9,765.3 16.9,764.1 5,764.1 -5,764.1 -16.9,764.1 -16.9,765.3 
					-5,773.8 -5,794.2 -16.9,802.7 -16.9,803.8 -5,803.8 5,803.8 16.9,803.8 16.9,802.7 				"/>
				<g id="XMLID_402_">
					<polygon id="XMLID_418_" class="st6" points="395.9,591.5 -16.9,764.1 -16.9,765.3 395.9,595.9 					"/>
					<polygon id="XMLID_415_" class="st7" points="440.4,627.7 -5,773.8 -16.9,765.3 395.9,595.9 					"/>
					<polygon id="XMLID_412_" class="st8" points="440.4,627.7 -5,773.8 -5,794.2 440.4,704.7 					"/>
					<polygon id="XMLID_409_" class="st6" points="395.9,736.4 -16.9,802.7 -16.9,803.8 395.9,740.8 					"/>
					<polygon id="XMLID_406_" class="st9" points="440.4,704.7 -5,794.2 -16.9,802.7 395.9,736.4 					"/>
					<polygon id="XMLID_403_" class="st7" points="522.9,740.8 16.9,803.8 -16.9,803.8 395.9,740.8 					"/>
				</g>
				<g id="XMLID_263_">
					<polygon id="XMLID_399_" class="st5" points="478.1,704.7 478.1,627.7 522.9,595.7 522.9,591.5 478.1,591.5 440.4,591.5 
						395.9,591.5 395.9,595.9 440.4,627.7 440.4,704.7 395.9,736.4 395.9,740.8 440.4,740.8 478.1,740.8 522.9,740.8 522.9,736.7 
											"/>
					<g id="XMLID_299_">
						<g id="XMLID_389_">
							<circle id="XMLID_396_" class="st7" cx="459.4" cy="608.5" r="6.8"/>
							<circle id="XMLID_393_" class="st8" cx="458.8" cy="607.4" r="5.6"/>
							<circle id="XMLID_390_" class="st5" cx="457.3" cy="605.2" r="1.5"/>
						</g>
						<g id="XMLID_379_">
							<circle id="XMLID_386_" class="st7" cx="459.4" cy="646.9" r="6.8"/>
							<circle id="XMLID_383_" class="st8" cx="458.8" cy="645.8" r="5.6"/>
							<circle id="XMLID_380_" class="st5" cx="457.3" cy="643.7" r="1.5"/>
						</g>
						<g id="XMLID_369_">
							<circle id="XMLID_376_" class="st7" cx="459.4" cy="685.4" r="6.8"/>
							<circle id="XMLID_373_" class="st8" cx="458.8" cy="684.3" r="5.6"/>
							<circle id="XMLID_370_" class="st5" cx="457.3" cy="682.1" r="1.5"/>
						</g>
						<g id="XMLID_300_">
							<circle id="XMLID_366_" class="st7" cx="459.4" cy="723.9" r="6.8"/>
							<circle id="XMLID_363_" class="st8" cx="458.8" cy="722.8" r="5.6"/>
							<circle id="XMLID_302_" class="st5" cx="457.3" cy="720.6" r="1.5"/>
						</g>
					</g>
				</g>
			</g>
			<g id="XMLID_130_">
				<polygon id="XMLID_283_" class="st5" points="-3.7,832.7 -3.7,812.2 8.2,803.7 8.2,802.6 -3.7,802.6 -13.7,802.6 -25.6,802.6 
					-25.6,803.8 -13.7,812.2 -13.7,832.7 -25.6,841.1 -25.6,842.3 -13.7,842.3 -3.7,842.3 8.2,842.3 8.2,841.2 				"/>
				<g id="XMLID_169_">
					<polygon id="XMLID_280_" class="st6" points="387.2,740.3 -25.6,802.6 -25.6,803.8 387.2,744.7 					"/>
					<polygon id="XMLID_277_" class="st7" points="431.7,776.5 -13.7,812.2 -25.6,803.8 387.2,744.7 					"/>
					<polygon id="XMLID_274_" class="st8" points="431.7,776.5 -13.7,812.2 -13.7,832.7 431.7,853.5 					"/>
					<polygon id="XMLID_271_" class="st6" points="387.2,885.3 -25.6,841.1 -25.6,842.3 387.2,889.7 					"/>
					<polygon id="XMLID_268_" class="st9" points="431.7,853.5 -13.7,832.7 -25.6,841.1 387.2,885.3 					"/>
					<polygon id="XMLID_265_" class="st7" points="514.2,889.7 8.2,842.3 -25.6,842.3 387.2,889.7 					"/>
				</g>
				<g id="XMLID_118_">
					<polygon id="XMLID_286_" class="st5" points="469.4,853.5 469.4,776.5 514.2,744.5 514.2,740.3 469.4,740.3 431.7,740.3 
						387.2,740.3 387.2,744.7 431.7,776.5 431.7,853.5 387.2,885.3 387.2,889.7 431.7,889.7 469.4,889.7 514.2,889.7 514.2,885.5 
											"/>
					<g id="XMLID_132_">
						<g id="XMLID_255_">
							<circle id="XMLID_262_" class="st7" cx="450.7" cy="757.3" r="6.8"/>
							<circle id="XMLID_259_" class="st8" cx="450.1" cy="756.2" r="5.6"/>
							<circle id="XMLID_256_" class="st5" cx="448.6" cy="754" r="1.5"/>
						</g>
						<g id="XMLID_245_">
							<circle id="XMLID_252_" class="st7" cx="450.7" cy="795.8" r="6.8"/>
							<circle id="XMLID_249_" class="st8" cx="450.1" cy="794.7" r="5.6"/>
							<circle id="XMLID_246_" class="st5" cx="448.6" cy="792.5" r="1.5"/>
						</g>
						<g id="XMLID_195_">
							<circle id="XMLID_242_" class="st7" cx="450.7" cy="834.2" r="6.8"/>
							<circle id="XMLID_239_" class="st8" cx="450.1" cy="833.2" r="5.6"/>
							<circle id="XMLID_198_" class="st5" cx="448.6" cy="831" r="1.5"/>
						</g>
						<g id="XMLID_133_">
							<circle id="XMLID_191_" class="st7" cx="450.7" cy="872.7" r="6.8"/>
							<circle id="XMLID_186_" class="st8" cx="450.1" cy="871.6" r="5.6"/>
							<circle id="XMLID_135_" class="st5" cx="448.6" cy="869.5" r="1.5"/>
						</g>
					</g>
				</g>
			</g>
			<path id="XMLID_774_" class="st7" d="M514.2,740.3c0,0-1.8,0.1-5.1,0.2c-3.2,0.1-7.9,0.3-13.4,0.4c-5.5,0.1-12,0.2-18.9,0.3
				c-3.5,0-7,0.1-10.7,0.1c-3.6,0-7.3,0-11,0c-3.7,0-7.4,0-11,0c-3.6,0-7.2-0.1-10.7-0.1c-6.9-0.1-13.4-0.2-18.9-0.3
				c-5.5-0.1-10.2-0.3-13.4-0.4c-3.2-0.1-5.1-0.2-5.1-0.2s1.8-0.1,5.1-0.2c3.2-0.1,7.9-0.3,13.4-0.4c5.5-0.1,12-0.2,18.9-0.3
				c3.5,0,7-0.1,10.7-0.1c3.6,0,7.3,0,11,0c3.7,0,7.4,0,11,0c3.6,0,7.2,0.1,10.7,0.1c6.9,0.1,13.4,0.2,18.9,0.3
				c5.5,0.1,10.2,0.3,13.4,0.4C512.3,740.3,514.2,740.3,514.2,740.3z"/>
			<path id="XMLID_775_" class="st7" d="M657,740.3c0,0-1.8,0.1-5.1,0.2c-3.2,0.1-7.9,0.3-13.4,0.4c-5.5,0.1-12,0.2-18.9,0.3
				c-3.5,0-7,0.1-10.7,0.1c-3.6,0-7.3,0-11,0c-3.7,0-7.4,0-11,0c-3.6,0-7.2-0.1-10.7-0.1c-6.9-0.1-13.4-0.2-18.9-0.3
				c-5.5-0.1-10.2-0.3-13.4-0.4c-3.2-0.1-5.1-0.2-5.1-0.2s1.8-0.1,5.1-0.2c3.2-0.1,7.9-0.3,13.4-0.4c5.5-0.1,12-0.2,18.9-0.3
				c3.5,0,7-0.1,10.7-0.1c3.6,0,7.3,0,11,0c3.7,0,7.4,0,11,0c3.6,0,7.2,0.1,10.7,0.1c6.9,0.1,13.4,0.2,18.9,0.3
				c5.5,0.1,10.2,0.3,13.4,0.4C655.2,740.3,657,740.3,657,740.3z"/>
			<path id="XMLID_267_" class="st7" d="M794.5,740.3c0,0-1.8,0.1-5.1,0.2c-3.2,0.1-7.9,0.3-13.4,0.4c-5.5,0.1-12,0.2-18.9,0.3
				c-3.5,0-7,0.1-10.7,0.1c-3.6,0-7.3,0-11,0c-3.7,0-7.4,0-11,0c-3.6,0-7.2-0.1-10.7-0.1c-6.9-0.1-13.4-0.2-18.9-0.3
				c-5.5-0.1-10.2-0.3-13.4-0.4c-3.2-0.1-5.1-0.2-5.1-0.2s1.8-0.1,5.1-0.2c3.2-0.1,7.9-0.3,13.4-0.4c5.5-0.1,12-0.2,18.9-0.3
				c3.5,0,7-0.1,10.7-0.1c3.6,0,7.3,0,11,0c3.7,0,7.4,0,11,0c3.6,0,7.2,0.1,10.7,0.1c6.9,0.1,13.4,0.2,18.9,0.3
				c5.5,0.1,10.2,0.3,13.4,0.4C792.7,740.3,794.5,740.3,794.5,740.3z"/>
			<path id="XMLID_270_" class="st7" d="M937.8,740.3c0,0-1.8,0.1-5.1,0.2c-3.2,0.1-7.9,0.3-13.4,0.4c-5.5,0.1-12,0.2-18.9,0.3
				c-3.5,0-7,0.1-10.7,0.1c-3.6,0-7.3,0-11,0c-3.7,0-7.4,0-11,0c-3.6,0-7.2-0.1-10.7-0.1c-6.9-0.1-13.4-0.2-18.9-0.3
				c-5.5-0.1-10.2-0.3-13.4-0.4c-3.2-0.1-5.1-0.2-5.1-0.2s1.8-0.1,5.1-0.2c3.2-0.1,7.9-0.3,13.4-0.4c5.5-0.1,12-0.2,18.9-0.3
				c3.5,0,7-0.1,10.7-0.1c3.6,0,7.3,0,11,0c3.7,0,7.4,0,11,0c3.6,0,7.2,0.1,10.7,0.1c6.9,0.1,13.4,0.2,18.9,0.3
				c5.5,0.1,10.2,0.3,13.4,0.4C936,740.3,937.8,740.3,937.8,740.3z"/>
		</g>
		<g id="XMLID_124_">
			<polygon id="XMLID_127_" class="st7" points="62.1,400.3 60.1,399.7 192.2,-96 309.5,-96 452.4,166.5 450.6,167.5 308.3,-94 
				193.8,-94 			"/>
		</g>
		<path id="XMLID_272_" class="st4" d="M1328.4,934c0,0-77.9,20.9-174.1,20.9S980.3,934,980.3,934s77.9-20.9,174.1-20.9
			S1328.4,934,1328.4,934z"/>
		<g id="XMLID_26_">
			<path id="XMLID_35_" class="st10" d="M1093.9,617.4c-29.8-21.9-30.8-91.7-30.8-91.7L888.8,413.5c-27.5,37.5-8.6,58.1-8.6,58.1
				L1093.9,617.4z"/>
			<path id="XMLID_33_" class="st11" d="M1123.8,639.3l-224.4-181c2.4,4.3-0.8,9.9-4.9,12.7c-4.1,2.8-9.7,2.7-14.2,0.6l242.7,192.9
				C1123.6,657,1123,646.9,1123.8,639.3z"/>
			<path id="XMLID_37_" class="st7" d="M1213.7,920.4c1,4.2,1.9,8.5,2.9,12.7c-15.7,5-31.2,11.1-46.4,17.3c-0.8,0.3-1.8,0.8-2,1.7
				c-0.5,1.8,2,2.8,3.9,2.8c18.8,0.2,56.1-4.8,56.1-4.8c-3.9-15.7-7.7-31.4-11.6-47.1C1212.4,906.4,1212.6,915.2,1213.7,920.4z"/>
			<path id="XMLID_44_" class="st7" d="M1110.8,904.5c0.9,3.8,1.7,7.5,2.6,11.3c-14,4.5-27.8,9.9-41.4,15.5
				c-0.8,0.3-1.6,0.7-1.8,1.5c-0.5,1.6,1.8,2.5,3.5,2.5c16.8,0.1,50-4.3,50-4.3c-3.5-14-6.9-28-10.4-42
				C1109.7,892,1109.8,899.8,1110.8,904.5z"/>
			<path id="XMLID_40_" class="st12" d="M1109.4,621.7c-10.2,57.6-15.5,116-15.8,174.5c-0.2,39.2,7.3,78.1,12.8,116.9
				c4.1-0.4,11.1-1.5,15.1-1.8c3.8-35,6.5-69.3,6.4-104.6c17.7-49.5,40.6-95.3,52.4-145.2c2.5-10.4,4.7-21,3.4-31.6
				c-2-16.6-13.9-32.2-30.1-36.5C1137.5,589.1,1112.3,605.2,1109.4,621.7z"/>
			<path id="XMLID_36_" class="st13" d="M1212.3,924.8c-15-31.5-30-63-45-94.6c-6.7-14-13.4-28.1-18.9-42.5
				c-17-44-23.6-91.2-30.1-138c24-28.9,56.4-53.2,93-61.7c2.2,27.7,4.1,55.1,2.9,82.8c-0.5,12-1.6,24-2.7,35.9
				c-2.9,31-5.8,62-8.6,93c10.2,19,14,40.8,15.7,62.3c1.7,21.5,1.9,43.3,5.9,64.5C1220.6,926,1216.1,925.2,1212.3,924.8z"/>
			<path id="XMLID_38_" class="st12" d="M1202.5,801c-3.7,11.6-14.1,20.7-26,23L1202.5,801z"/>
			<path id="XMLID_39_" class="st12" d="M1201.9,798.3c-6.3,6.9-15.5,11-24.8,11.2L1201.9,798.3z"/>
			<path id="XMLID_41_" class="st14" d="M1128,805.9c-5.5,5.6-12.9,9.5-20.7,10.8L1128,805.9z"/>
			<path id="XMLID_42_" class="st14" d="M1128.8,804.7c-8.8,1.5-18.2-0.5-25.6-5.5L1128.8,804.7z"/>
			<linearGradient id="XMLID_854_" gradientUnits="userSpaceOnUse" x1="976.373" y1="275.1045" x2="1015.2445" y2="275.1045">
				<stop  offset="0" style="stop-color:#7C3618"/>
				<stop  offset="1" style="stop-color:#B17756"/>
			</linearGradient>
			<path id="XMLID_53_" class="st15" d="M979.7,286c3.6,4,8,7.9,13.4,8.2c3.4,0.2,6.6-1.2,9.6-2.7c3-1.5,5.9-3.4,8.1-5.9
				c4.2-4.8,5.5-11.9,3.3-17.9C1003.5,239.3,964.8,269.5,979.7,286z"/>
			<linearGradient id="XMLID_857_" gradientUnits="userSpaceOnUse" x1="985.2547" y1="264.6035" x2="975.4468" y2="275.937">
				<stop  offset="0" style="stop-color:#7C3618"/>
				<stop  offset="1" style="stop-color:#B17756"/>
			</linearGradient>
			<path id="XMLID_52_" class="st16" d="M971.8,279c3.7,4,8.9,6.7,14.3,6.6c5.4-0.2,10.8-3.6,12.5-8.8c1.5-4.6-0.2-9.9-3.2-13.7
				c-4.5-5.8-16.3-15.7-24.1-10.9C962.5,257.9,966.1,272.7,971.8,279z"/>
			<linearGradient id="XMLID_868_" gradientUnits="userSpaceOnUse" x1="988.295" y1="257.8993" x2="975.6539" y2="266.3994">
				<stop  offset="0" style="stop-color:#7C3618"/>
				<stop  offset="1" style="stop-color:#B17756"/>
			</linearGradient>
			<path id="XMLID_51_" class="st17" d="M973.9,266.5c1.6,2.4,3.3,4.6,5.2,6.8c2.2,2.5,4.7,5,8,5.6c4.5,0.8,8.8-2.2,12.4-5.1
				c1-0.8,2-1.6,2.6-2.6c0.7-1.1,0.9-2.4,1-3.6c1.1-10.6-7.3-25-18.7-26.5C969.4,239.1,967.6,257.2,973.9,266.5z"/>
			<linearGradient id="XMLID_869_" gradientUnits="userSpaceOnUse" x1="1002.6035" y1="243.3504" x2="981.898" y2="258.607">
				<stop  offset="0" style="stop-color:#7C3618"/>
				<stop  offset="1" style="stop-color:#B17756"/>
			</linearGradient>
			<path id="XMLID_49_" class="st18" d="M980.8,236.6c-2,1.6-2.7,4.2-3.3,6.6c-0.8,3.4-1.6,7-0.8,10.4c0.7,2.8,2.3,5.2,4.1,7.5
				c1.7,2.2,3.6,4.4,6,5.8c5,3,11.8,2.3,16.4-1.2c6.8-5.1,10.2-18,4.8-25.4C1003.3,234,986.7,231.8,980.8,236.6z"/>
			<linearGradient id="XMLID_870_" gradientUnits="userSpaceOnUse" x1="979.4083" y1="191.6798" x2="1002.6565" y2="238.7574">
				<stop  offset="0" style="stop-color:#7C3618"/>
				<stop  offset="1" style="stop-color:#B17756"/>
			</linearGradient>
			<path id="XMLID_54_" class="st19" d="M977.7,191.7c-2.1-1-4.8-1.8-6.5-0.3c-0.6,0.6-1,1.4-1.2,2.3c-2.4,7.8,2.5,16,8,22.1
				c5.5,6.1,12.1,11.8,14.3,19.7c1.1,3.8,1.1,8,3.3,11.3c4.3,6.6,14.6,5.6,19-0.4c4.2-5.8,0.7-12.8-2-18.5
				C1005.1,212.2,993.3,199.2,977.7,191.7z"/>
			<path id="XMLID_50_" class="st3" d="M1096.9,379.9c-13-4.7-25.8-11.4-34.6-22c-5-6.1-8.6-13.2-12.2-20.3
				c-9.3-18-19.3-35.6-30.1-52.7c-4.2,1.1-10.5,2.1-14.5,3.7c3.8,26.7,7.7,54.9,14.3,81.1c5.6,22.3,14.8,46.1,34.9,57.2
				c9.1,5,19.6,6.8,29.8,8.6c29.9,5.1,64.1-2.6,93.5-10.5l5.4-30.6C1154.2,392.1,1124.5,389.9,1096.9,379.9z"/>
			<path id="XMLID_188_" class="st20" d="M1183.5,394.2c-23.4-1.7-47-3.5-69.6-9.2c1.5,17.5-0.1,35.1-5,51.9
				c23.3-0.6,47.6-6.3,69.2-12L1183.5,394.2z"/>
			<path id="XMLID_47_" class="st21" d="M1150.7,391.6c3-8.1,6.9-15.9,11.4-23.3c1.1-1.8,4-0.3,3,1.6c-0.1,0.1-0.1,0.2-0.2,0.3
				c-6.1,8.5-10.5,19.4-12.9,29.5C1151.4,397.2,1151.3,394.1,1150.7,391.6z"/>
			<path id="XMLID_46_" class="st21" d="M1154.7,411.3c3.9-5.7,8.3-12.4,12.2-18.1c-4.2-5.1-10.2-8.4-16.6-10.2
				c-2.9,5.7-5.1,11.8-6.7,18C1146.3,404.9,1151.5,407.7,1154.7,411.3z"/>
			<path id="XMLID_45_" class="st22" d="M1137.6,410.3c-0.2-5.3,1.2-10.7,3.9-15.2c9.4-1.4,19.3,3.2,27.5,8.1c-3,5.3-6,10.7-9,16
				c-0.4,0.7-0.8,1.4-1.5,1.7c-0.8,0.4-1.7,0.1-2.6-0.2c-5.2-1.8-10.2-3.9-15.1-6.5C1139.2,413.3,1137.6,412.2,1137.6,410.3z"/>
			<g id="XMLID_12_">
				<path id="XMLID_156_" class="st11" d="M1157.7,421.4c-0.6,0-1.3-0.2-1.8-0.4c-5.2-1.8-10.3-3.9-15.1-6.5
					c-1.7-0.9-3.4-2.1-3.5-4.2c-0.2-5.4,1.2-10.8,3.9-15.5l0.1-0.2l0.2,0c10.1-1.5,20.7,3.9,27.8,8.2l0.4,0.2l-9.2,16.3
					c-0.3,0.6-0.8,1.5-1.7,1.8C1158.4,421.4,1158,421.4,1157.7,421.4z M1141.7,395.5c-2.6,4.4-3.9,9.7-3.7,14.8l0,0
					c0.1,1.7,1.5,2.7,3.1,3.5c4.8,2.5,9.9,4.7,15,6.4c0.8,0.3,1.6,0.5,2.3,0.2c0.5-0.2,0.9-0.8,1.3-1.5l8.7-15.6
					C1161.4,399.3,1151.3,394.2,1141.7,395.5z"/>
			</g>
			<path id="XMLID_43_" class="st23" d="M1143.9,462.3c-6.8,0.8-13.1-2.6-18-7.3c2-17.4,4.4-34.9,8.3-51.9
				c10.8,2.8,21.9,4.5,33.1,5.2C1159.6,426.7,1150.1,443.4,1143.9,462.3z"/>
			<path id="XMLID_16_" class="st24" d="M1095.2,632.9c-9.1-24.7-8.3-52.2-2.1-77.8c6.2-25.6,17.4-49.7,28.9-73.4
				c15.4-31.9,31.5-63.7,51.1-93.2c2.3-3.5,8.7-4.9,12.7-6.2c14.4-4.8,30.3-5,44.9-0.6c15.5,32.7,22.1,70.7,17.1,106.6
				c-5.8,41.2-25.3,80.5-23.8,122c-30.9,11.8-62.2,23.6-95,27.5C1117.5,639.2,1105.6,637.8,1095.2,632.9z"/>
			<path id="XMLID_29_" class="st25" d="M1145.1,628.5c11.6-9.2,25-15.6,38.4-21.9c14.6-6.9,29.2-13.9,43.9-20.8
				c1.6-5.7,3.4-11.6,4.4-17.4c-23.8,7.9-48.7,12.9-73.3,17.4c-2.1,0.4-4.3,0.9-5.5,2.6c-0.6,0.8-0.8,1.9-1.1,2.9
				C1149,604,1146.2,615.5,1145.1,628.5z"/>
			<path id="XMLID_27_" class="st23" d="M1157.4,576.7c0.8,0.4,0.9,1.4,0.9,2.2c0,11.5-1,23.4-2.1,34.8c-10.4,2.1-21.1,3.2-31.7,3.5
				c-10.2,0.3-20.8-0.7-29.4-6.2c-0.8-10.7-0.7-21.5,0.1-32.3c4.6,0.9,10.1,0,14.8-0.5C1125.6,577,1143.4,569.9,1157.4,576.7z"/>
			<path id="XMLID_14_" class="st3" d="M1211.2,294.5c-4.6,31.3-7.5,58.6-7.6,90.2c-5.4,3.3-10.6,2.6-16,5.9
				c-1.9,1.1-5.3,2.2-6.7,3.8c-3.3-24.2-9.3-40.5-20-62.5C1175.8,318.6,1193.8,304.4,1211.2,294.5z"/>
			<linearGradient id="XMLID_872_" gradientUnits="userSpaceOnUse" x1="1160.9038" y1="324.9819" x2="1211.2079" y2="324.9819">
				<stop  offset="0" style="stop-color:#E97695"/>
				<stop  offset="1" style="stop-color:#F7B794"/>
			</linearGradient>
			<path id="XMLID_152_" class="st26" d="M1211.2,294.5c-17.4,9.9-35.4,24.1-50.3,37.5c4.1,8.4,7.5,16,10.3,23.5l35.5-26.1
				C1207.9,318,1209.4,306.6,1211.2,294.5z"/>
			<linearGradient id="XMLID_876_" gradientUnits="userSpaceOnUse" x1="1112.0299" y1="238.8239" x2="1164.0961" y2="238.8239">
				<stop  offset="0" style="stop-color:#E97695"/>
				<stop  offset="1" style="stop-color:#F7B794"/>
			</linearGradient>
			<path id="XMLID_10_" class="st27" d="M1137.9,224.1c-4.1-1.3-8-3-12.3-3.4c-4.2-0.4-8.9,0.8-11.5,4.1c-2.1,2.6-2.5,6.3-1.8,9.6
				c0.8,3.3,2.6,6.2,4.7,8.8c7.2,8.6,18.3,13.7,29.5,13.7c1.1,0,2.2-0.1,3.1-0.6c0.6-0.3,1-0.8,1.5-1.2c4.9-5.2,8.9-11.2,11.6-17.8
				c0.9-2.1,1.6-4.3,1.2-6.5c-1.1-5.3-6.4-3.1-10.1-3.4C1148.5,226.9,1143.1,225.8,1137.9,224.1z"/>
			<path id="XMLID_3_" class="st3" d="M1123.1,268.3c-10.5,9.7-23.1,19.2-25.8,33.2c-2.2,11.5,3.3,23.7,12.5,31.1
				c9.1,7.3,21.3,10.2,33,9.5c11.7-0.7,23-4.6,33.6-9.6c40.1-18.9,72.1-54.2,87-96c0.8-2.3,1.6-4.6,1.6-7.1c0-3.2-1.3-6.2-2.9-9.1
				c-8.1-15.2-22.1-27.1-38.4-32.8c-13.4-4.7-41.7-8.3-52.4,4.3c-5.2,6.2-6.7,16.5-10.1,23.7c-4.3,9.3-9.4,18.1-15.3,26.5
				C1139.3,251.6,1131.6,260.4,1123.1,268.3z"/>
			<path id="XMLID_5_" class="st23" d="M1210.3,213.3c-0.8-0.5-1.7,0.6-1.9,1.6c-3.3,11.6-1.8,24.5,4,35.1
				c-3.9,5.3-7,11.1-10.5,16.6c4.3,4.4,8.2,8.4,12.5,12.8c3-3.1,5.7-6.2,9.5-8.3s8.6-2.8,12.6-1.2c0.7,4.8-2.6,10.7-5.2,14.8
				c-6.5,10.4-13.8,20-23.1,28c9-4.3,17.2-5.8,26.1-10.4c5-2.6,10.1-5.4,13-10.2c1.6-2.7,2.4-5.8,3.1-8.9
				c3.2-13.7,5.7-27.5,7.6-41.4c0.8-6.4,1.5-13-0.1-19.2c-2.4-9.5-10.5-17.3-20-19.4S1216.5,205.8,1210.3,213.3z"/>
			<path id="XMLID_4_" class="st28" d="M1204.9,150.8l12.8-11.9c0,0,44.2-10.5,73.4,45.5L1204.9,150.8z"/>
			<path id="XMLID_6_" class="st29" d="M1251.5,148.8c-45.4-13.9-78.5,23.8-78.5,23.8v7.6l32,40l49.5,49.5
				C1328.2,241.8,1296.9,162.7,1251.5,148.8z"/>
			<g id="XMLID_56_">
				<path id="XMLID_57_" class="st30" d="M1280.4,238.3c6.2-12.7,7.6-27.7,3.8-41.3c-3.8-13.6-12.8-25.7-24.7-33.4
					c-9.5-6-22.2-9.1-31.8-3.3c13.7-0.5,26.8,11.2,27.8,24.9c-7.2-12.8-23.3-18.4-37.9-17.3c-14.6,1.1-28.2,7.6-41.4,14
					c-0.4,0.2-0.8,0.4-1.3,0.7l30,37.5l49.5,49.5c0.8-0.3,1.6-0.6,2.4-0.9c1.9-2,3.8-4.1,5.7-6.1
					C1269.2,255.1,1276,247.4,1280.4,238.3z"/>
			</g>
			<path id="XMLID_2_" class="st28" d="M1172.9,172.5c-18.9-2.4-37.9-3.9-56.9-4.2c32.3,13.4,56.1,39.7,88.9,51.8L1172.9,172.5z"/>
			<path id="XMLID_7_" class="st3" d="M1242.8,265c5.6,0.5,11.3,3.7,13.4,8.9c0.3,0.8,0.6,1.8,0.4,2.7c-0.3,1.5-1.5,2.5-2.7,3.4
				c-15.7,12-32.8,24.3-52.5,25.6c-1.4,0.1,5.9-24.3,8.7-27.5C1217,270.3,1232.6,264.1,1242.8,265z"/>
			<path id="XMLID_8_" class="st31" d="M1183.1,219.3c-1-4.9-3.4-9.6-6.8-13.3c-2-2.2-5-4.3-7.9-3.4
				C1174.5,207.3,1179.1,212.8,1183.1,219.3z"/>
			
				<ellipse id="XMLID_9_" transform="matrix(-0.8441 -0.5362 0.5362 -0.8441 2031.4045 1047.0443)" class="st31" cx="1167.9" cy="228.2" rx="3.1" ry="8.1"/>
			<path id="XMLID_11_" class="st32" d="M1187.6,263.6c-15.6,3.4-32,3.1-47.4-0.8c1.1,1.2,2.1,2.7,3.2,4c-2,3.7-5.1,8.6-5.5,12.8
				c-0.3,4.2,1.3,8.8,4.9,10.8c4.9,2.7,11-0.1,15.8-3.1C1169.3,280.3,1178.7,272.9,1187.6,263.6z"/>
			<g id="XMLID_147_">
				<path id="XMLID_148_" class="st11" d="M1175.1,275.2c4.3-3.6,8.4-7.4,12.4-11.6c-13.5,3-27.6,3.1-41.1,0.6
					c-1.4,2.8-2.9,5.5-4.3,8.3C1152.8,275.3,1164.1,276.1,1175.1,275.2z"/>
				<path id="XMLID_149_" class="st33" d="M1143.9,290.9c4.7,1.8,10.3-0.8,14.7-3.6c3.9-2.5,7.6-5.1,11.2-7.7c-5,0-9.9,0.8-14.5,2.7
					C1150.8,284,1146.7,287,1143.9,290.9z"/>
			</g>
			<path id="XMLID_15_" class="st20" d="M1230.7,381.8c-0.3-1.9-0.2-6.6,0.6-8.4c-20.2-4.8-40.1,2.4-60.1,7.8
				c-1.6,8.8-2.4,17.7-2.4,26.6C1187.6,395.5,1208.5,386.8,1230.7,381.8z"/>
			<path id="XMLID_189_" class="st34" d="M1161.7,619c-1.9-5.8-3.1-12.4-10-13.6c-2.6-0.4-5.3,0.1-7.8,0.6
				c-5.9,1.2-11.8,2.5-17.7,3.9c-1.5-4.6-2.8-9.2-4.1-13.8c-1.5-5.3-7-8.3-12.2-6.6c-10.2,3.3-20.1,7.9-27.5,15.3
				c3.3,19.3,10,38,19.7,54.9c9.1,0.9,18.5-2.2,27.8-4.4c1,0.8,2.2,1.3,3.5,1.5c2.8,0.3,5.5-1.3,7.9-2.8c0.4-0.3,0.8-0.5,1.2-0.8
				c0.3,0,0.6,0,0.9,0c-0.1-0.1-0.1-0.3-0.2-0.4c7.7-4.9,15.4-9.9,23-14.8C1167.6,637,1162.3,621,1161.7,619z"/>
			<g id="XMLID_28_">
				<g id="XMLID_202_">
					<path id="XMLID_238_" class="st35" d="M1154.4,610.8l-0.1-0.9c0.7-0.1,1.5-0.2,2.2-0.2l0.1,0.9
						C1155.9,610.6,1155.2,610.7,1154.4,610.8z"/>
				</g>
				<g id="XMLID_200_">
					<path id="XMLID_234_" class="st35" d="M1129.5,615.5l-0.2-0.9c1.4-0.3,2.8-0.6,4.2-0.9l0.2,0.9
						C1132.2,614.9,1130.8,615.2,1129.5,615.5z M1137.8,613.7l-0.2-0.9c1-0.2,2.1-0.4,3.1-0.6l1-0.2l0.2,0.9l-1,0.2
						C1139.8,613.3,1138.8,613.5,1137.8,613.7z M1146.1,612l-0.2-0.9c1.4-0.3,2.9-0.5,4.2-0.7l0.1,0.9
						C1148.9,611.5,1147.5,611.8,1146.1,612z"/>
				</g>
				<g id="XMLID_199_">
					<path id="XMLID_233_" class="st35" d="M1122.8,617l-0.1-0.4c-0.2-0.7-0.4-1.4-0.7-2.1l0.8-0.3c0.2,0.6,0.4,1.1,0.5,1.7l1.7-0.4
						l0.2,0.8L1122.8,617z"/>
				</g>
				<g id="XMLID_197_">
					<path id="XMLID_226_" class="st35" d="M1120.8,610.7c-0.4-1.3-0.8-2.6-1.1-3.9l0.8-0.2c0.4,1.3,0.8,2.6,1.1,3.9L1120.8,610.7z
						 M1088.2,604.8l-0.5-0.7c1.1-0.7,2.3-1.4,3.5-2.1l0.4,0.8C1090.5,603.4,1089.3,604.1,1088.2,604.8z M1118.6,602.9l0-0.2
						c-0.3-1.2-0.9-2.3-1.7-3.3l0.7-0.5c0.8,1.1,1.4,2.3,1.8,3.6l0,0.2L1118.6,602.9z M1095.3,601l-0.4-0.8c1.2-0.6,2.4-1.1,3.7-1.6
						l0.3,0.8C1097.7,599.9,1096.4,600.4,1095.3,601z M1102.7,597.9l-0.3-0.8c1.2-0.5,2.5-0.9,3.8-1.3l0.3,0.8
						C1105.2,597,1103.9,597.5,1102.7,597.9z M1114,597.1c-1.2-0.6-2.4-1-3.7-1l0.1-0.9c1.4,0.1,2.8,0.5,4,1.1L1114,597.1z"/>
				</g>
				<g id="XMLID_196_">
					<path id="XMLID_219_" class="st35" d="M1083.2,608.4l-0.5-0.7c0.6-0.5,1.2-0.9,1.7-1.3l0.5,0.7
						C1084.3,607.5,1083.8,608,1083.2,608.4z"/>
				</g>
			</g>
			<g id="XMLID_146_">
				<path id="XMLID_151_" class="st36" d="M1243.8,418.9c-2.6-4.7-5.7-9.2-9.3-13.4c-5-5.9-13.7-6.8-19.9-2.2
					c-5.4,4.1-9.8,10.2-13.4,16.1c-8.7,14.6-15.9,31.2-13.8,48c2.5,20,17.4,36,32,50c4.7,4.5,10.5,9.2,16.8,7.9
					c1.3-0.3,2.5-0.8,3.6-1.5c3.2-11.8,6-23.6,7.7-35.6C1250.9,465.4,1249.4,441.6,1243.8,418.9z"/>
			</g>
			<g id="XMLID_17_">
				<path id="XMLID_150_" class="st37" d="M1217.4,389c-13.9,1.1-27,8.2-36.8,18.1c-9.9,9.9-16.8,22.4-21.8,35.5
					c5.4,2.4,10.8,5.5,16.5,7.1c3.3-10.3,7.7-20.9,13.2-30.2c5.6-9.3,13.4-17.5,23.2-22c3.3-1.5,6.9-2.6,10.5-2.6
					c5.9,0,11.4,2.7,16.2,6c-1.1-3.3-2.4-6.5-3.7-9.8C1229.2,389.3,1223.2,388.5,1217.4,389z"/>
				<path id="XMLID_161_" class="st37" d="M1245.3,501.9c-40.9-2.5-81.4-12.8-118.5-30.2c-1.6,3.3-3.3,6.7-4.9,10
					c-4.9,10.2-9.8,20.5-14.3,30.9c38,22.1,81.5,34.7,125.4,36.6C1237.3,533.5,1242.1,517.8,1245.3,501.9z"/>
			</g>
			<path id="XMLID_32_" class="st10" d="M1159.3,635.3c-5.3-9.3-10.2-19.3-13.9-29.3c0.4-1.4,1.5-2.9,2.4-4.2
				c-0.7-0.3-1.3-1-1.7-1.7c-2.6-3.5-5.7-6.8-8.3-10.3c-1,0.2-1.7,0.4-2.6,0.9c0.7,1.1,0.9,2.5,1.2,3.8c0.6,3.4,1.6,7.4,2,10.8
				c1,1,2.6,1.7,4,1.9c4,8.8,7.3,17.9,9.7,27.2C1154.2,634.9,1157,634.9,1159.3,635.3z"/>
			<path id="XMLID_66_" class="st38" d="M1159.3,635.3c-2.1-3.7-4.2-7.6-6.1-11.5l-3.7,1.9c0.9,2.8,1.7,5.7,2.5,8.6
				C1154.2,634.9,1157,634.9,1159.3,635.3z"/>
			<path id="XMLID_25_" class="st23" d="M1105.4,645.1c3.1,14.8,7.3,29.4,12.6,43.5c1.7,4.6,3.6,9.2,6.9,12.8
				c5.8,6.4,15.2,8.7,23.8,7.5c8.6-1.1,16.5-5.2,23.9-9.7c3.7-2.3,7.5-4.9,9.3-8.9c1.3-2.9,1.3-6.3,1.2-9.5
				c-0.8-17.6-10.2-41.7-15.6-58.4L1105.4,645.1z"/>
			<path id="XMLID_30_" class="st10" d="M1128.3,654.6c-1.5-7.2-2.4-14.4-2.9-21.7c2.4-1,4.5-2.5,6.3-4.4c0.8-0.9,1.6-1.8,1.9-3
				c0.2-0.8,0.3-1.6,0.3-2.4c0.1-2.3,0.1-4.7-0.7-6.9c-1.2-3.1-4.3-5.2-7.3-6.6c0.3,4.1,0.3,8.6-0.2,12.6c-1.9,2.1-4.1,4.1-6.2,6.1
				c-1.8-2.1-3.5-4.6-5.1-6.9c0.3-3.6,0.3-6.9,0.1-10.6c-5.5,1.5-9.4,7.3-8.7,12.9c0.7,5.6,5.9,10.3,11.5,10.5
				c-0.1,6.7,0.3,13.6,0.7,20.3C1121.5,654.6,1124.9,654.6,1128.3,654.6z"/>
			<path id="XMLID_31_" class="st10" d="M1139.3,646.4c0.3-6.4,1.1-12.9,2.4-19.2c-0.6-1.8-1.2-3.8-1.6-5.7c-1.4,1.2-3,3-4.4,4.2
				c-1.1,6.9-2.6,13.8-4.7,20.5C1133.9,646,1136.4,646.9,1139.3,646.4z"/>
			<path id="XMLID_34_" class="st10" d="M1101.4,623.3c-2.7,0.5-5.5,2.3-7.5,4.2c1.6,8.8,8.1,20.7,13,28.2l8.7-2.4
				C1111.9,642.9,1107.1,632.8,1101.4,623.3z"/>
			<path id="XMLID_63_" class="st38" d="M1117.5,642.7c0.1,4,0.3,7.9,0.6,11.8c3.4,0,6.8,0,10.2,0c-1-5.1-1.8-10.2-2.3-15.3
				L1117.5,642.7z"/>
			<path id="XMLID_64_" class="st38" d="M1133.7,636.1c-0.8,3.4-1.7,6.8-2.7,10.2c3-0.3,5.4,0.6,8.4,0.1c0.2-4.4,0.6-8.8,1.3-13.2
				L1133.7,636.1z"/>
			<path id="XMLID_65_" class="st38" d="M1102.7,648.8c1.4,2.5,2.9,4.9,4.2,6.9l8.7-2.4c-1-2.9-2.1-5.7-3.3-8.5L1102.7,648.8z"/>
			<path id="XMLID_24_" class="st34" d="M1145.5,634.3c-16.1,8.3-32.8,15.6-49.8,21.9c1,9.6,2.2,14,4.6,20.4
				c2.2,6,4.8,12.5,10.3,15.9c7.1,4.4,16.5,1.8,24-1.8c6.7-3.2,12.9-7.2,18.7-11.9c1.4-1.2,2.9-2.5,3.5-4.2c0.6-1.7,0.3-3.5,0-5.3
				C1154.7,658.3,1150.5,644.3,1145.5,634.3z"/>
			<path id="XMLID_48_" class="st23" d="M999.8,311c8.8-0.9,17.4-3.6,25.1-8c1.6-0.9,3.3-2,4.3-3.5c1.1-1.5,1.4-3.7,0.4-5.3
				c-0.5-0.8-1.3-1.3-1.6-2.1c-1.3-2.8,2.5-6.4,0.7-8.9c-1.2-1.6-4.2-1.6-4.6-3.6c-0.4-2.1,0.9-3.9,1.8-5.8
				c6.2-11.9,3.9-27.7-5.4-37.4c-1.4-1.4-2.9-2.8-4.8-3.3c-3-0.8-6.2,0.5-9,1.9c-6.9,3.6-13.4,7.9-19.4,12.8
				c-1.9,1.6-3.9,3.4-4.7,5.8c-1.5,4.5,2,9.4,6.4,10.9c4.5,1.5,9.4,0.1,13.5-2.2c-6.4,3.5-9.3,15.2-4.8,21c-0.6,2.2-3.5,5.5-5.4,6.9
				c-1.8,1.4-3.6,3.7-2.8,5.9c1.8,0.9,3.8,1.5,5.9,1.6c-0.7,1.1-1.2,2.5-0.9,3.9c0.4,1.3,1.9,2.3,3.1,1.8
				C995.7,306,996.7,310.3,999.8,311z"/>
			<path id="XMLID_145_" class="st39" d="M1240.6,271.2c-7.4,1.5-14.8,3-22.2,4.5c1.2,1.3,2.3,2.8,2.7,4.6c0.4,1.8-0.2,3.8-1.7,4.8
				c-2.4,1.6-5.8-0.2-8.5,0.9c0.6,2.5,0.2,5.2-0.9,7.5c-0.5,0.9-1.1,1.8-1.1,2.8c0,1.1,0.8,2.1,1.8,2.6c1.6,0.7,3.6,0.1,4.9-1.1
				s2.2-2.8,3-4.4c0.4-0.8,0.8-1.6,1.3-2.4c0.2-0.3,0.3-0.7,0.2-1c-0.1-0.4-0.6-0.6-1-0.7c-1.2-0.4-2.5-0.8-3.7-1.2
				c2.6-0.1,5.1-0.3,7.7-0.4c0.8,0,1.6-0.1,2.3-0.4c1.8-0.9,2.4-3.6,4.4-3.9c-0.7-2.3-1.9-4.4-3.6-6.2c3.5-0.1,6.9,1.8,8.6,4.9
				c1.1-2.1,1.3-4.7,0.4-7c3.4-0.9,6.9-1.2,10.4-0.9c1,1.9,0.7,4.2-0.2,6.2s-2.4,3.5-3.9,5.1c2.6-2.8,8.4-3.3,8.5-8.4
				C1250.2,271.4,1244.8,270.3,1240.6,271.2z"/>
			<path id="XMLID_13_" class="st11" d="M1153.9,227.4c0,0-0.2,0-0.7,0c-0.5,0-1.1,0-2-0.1c-1.7-0.1-4.1-0.4-7-0.9
				c-2.9-0.5-6.2-1.4-9.6-2.6c-1.7-0.6-3.5-1.1-5.3-1.5c-1.8-0.4-3.7-0.7-5.5-0.7c-1.8,0-3.7,0.4-5.3,1.1c-1.6,0.7-3,1.7-4,3.1
				c-0.9,1.3-1.5,2.9-1.7,4.5c-0.2,1.6-0.1,3.1,0.2,4.5c0.6,2.7,1.8,4.9,2.7,6.3c0.9,1.4,1.5,2.2,1.5,2.2s-0.2-0.2-0.5-0.5
				c-0.3-0.3-0.8-0.8-1.3-1.5c-0.5-0.7-1.1-1.5-1.7-2.5c-0.6-1-1.2-2.3-1.6-3.7c-0.4-1.4-0.7-3.1-0.5-4.8c0.1-1.7,0.6-3.6,1.8-5.3
				c1.1-1.6,2.7-3,4.6-3.8c1.9-0.8,3.9-1.2,5.9-1.3c4.1,0,7.9,1.3,11.3,2.5c1.7,0.6,3.3,1.2,4.9,1.7c1.6,0.5,3.1,0.9,4.5,1.3
				c2.8,0.7,5.1,1.3,6.8,1.5C1152.9,227.2,1153.9,227.4,1153.9,227.4z"/>
			<g id="XMLID_18_">
				<path id="XMLID_21_" class="st20" d="M1252.9,485.4c-1.8-24.8-16.5-85-33.8-78.8c-10.4,3.7-12.3,18.3-14.9,29.1
					c-5.2,21.8-5.9,45.1-15.5,65.4c-0.2,0.4-0.4,0.8-0.6,1.3c21.1,7.5,43.4,11.6,65.7,14.9C1254.3,506.6,1253.7,495.9,1252.9,485.4z
					"/>
				<path id="XMLID_22_" class="st3" d="M1188,502.3c-10.3,21-29.5,36.8-50.8,46.5c-21.7,10-45.6,14.2-69.4,16.7
					c-0.4,6.6-0.2,13.8,3,19.6c21.6,0.6,45.8,1.6,67.4,3.2c12.8,0.9,25.7,0.9,38.6-0.1c20.8-1.5,42.7-6.2,57.5-21
					c10.2-10.2,15.9-24.4,18.2-38.7c0.6-3.8,1-7.7,1.2-11.5C1231.4,513.9,1209.2,509.8,1188,502.3z"/>
			</g>
			<g id="XMLID_164_">
				<path id="XMLID_170_" class="st40" d="M1206.4,481.9c1.5-4.2,4-8,6.5-11.7c4.7-6.9,9.3-13.8,14-20.7c-5.3,3.9-11.2,7.1-17.4,9.4
					c3.1-11.6,6.2-23.1,9.4-34.7c1.6-5.7,3.6-12,7.1-16.7c-2.2-1.4-4.6-1.8-6.9-0.9c-10.4,3.7-12.3,18.3-14.9,29.1
					c-5.2,21.8-5.9,45.1-15.5,65.4c-0.2,0.4-0.4,0.8-0.6,1.3c4.8,1.7,9.6,3.2,14.5,4.6c0.5-4.5,1-8.9,1.6-13.4
					C1204.6,489.6,1205,485.6,1206.4,481.9z"/>
			</g>
			<path id="XMLID_20_" class="st23" d="M1084.2,591.6c-3.8-10.3-7.4-20.8-10.9-31.2c-1.5,0-2.7-0.1-4.1,0.4c-0.4,1-1.3,2.4-1.7,3.4
				l-0.6-0.4c-0.8-0.6-1.9-0.3-2.3,0.6c0,0,0,0,0,0c-0.3,0.7-1.3,1.2-2,0.8c-0.7-0.4-8.2-5.7-11.4-7c-3.2-1.2-6.6-1.9-9.8-3
				c-1.8-0.6-3.5-1.4-5.3-1.8c-4-0.7-10.1,2.4-13.6,4.6c1.8,2.6,3.2,4.5,5.4,6.8c-7.9,4.4-13.7,5.8-22.8,6.4
				c-1.5,4.6,0.2,10.2,4.9,11c1.7,0.3,3.8,0.4,4.4,1.9c0.3,0.7,0.1,1.5,0.1,2.2c0,2.4,2,4.4,4.3,5.2c2.2,0.8,4.7,0.6,7.1,0.5
				c-0.9,2.9,1.7,6.3,4.7,6.3c0.9,0,2.1-0.2,2.6,0.5c0.3,0.3,0.3,0.7,0.5,1.1c0.7,2.1,3.1,3.4,5.4,3.5c2.3,0,4.4-0.9,6.4-1.9
				c6.8-3.6,12.7-8.9,16.9-15.3c0.2,0.4,0.6,0.5,0.8,0.9c0.6,1.1,1.4,2.4,2.6,2.8c1.2,0.5,2.9-0.4,2.7-1.7c1.2,0.6,1,2.6,2.1,3.4
				c0.8,0.7,2.4,0.2,2.6-0.9c0.1-0.3,0.1-0.6,0.3-0.7c0.2-0.1,0.4,0.1,0.6,0.3C1076.8,592.9,1081.3,593.8,1084.2,591.6z"/>
			<path id="XMLID_19_" class="st34" d="M1069.3,584.9c-1.1-6.2-2.3-12.4-3.4-18.6C1066,572.4,1066.6,579.6,1069.3,584.9z"/>
			<path id="XMLID_23_" class="st34" d="M1075.5,587.5c-2.4-6.9-4.4-14-6-21.1C1069.2,573.4,1071.9,581.4,1075.5,587.5z"/>
			<path id="XMLID_178_" class="st25" d="M1047,589.3c0,1.8-1.2,3.5-2.7,4.5c-1.5,1-4.4,2.9-6.1,2.5c-3.9-0.9-6.9-4.1-9.5-7.2
				c-2.8-3.2-6.2-6.2-8.3-9.9c4.8-2.3,9.2-5.5,12.9-9.4c4.3,6.1,8.8,12.6,13.2,18.6c0.1,0.2,0.3,0.3,0.5,0.3
				C1047.2,588.7,1047.2,589.1,1047,589.3z"/>
			<g id="XMLID_180_">
				<path id="XMLID_220_" class="st35" d="M1098.8,660.2l-0.3-0.8c0,0,1.9-0.7,4.9-1.8l0.3,0.8
					C1100.7,659.6,1098.8,660.2,1098.8,660.2z M1108.6,656.7l-0.3-0.8c1.5-0.6,3.2-1.2,4.9-1.9l0.3,0.8
					C1111.8,655.5,1110.2,656.1,1108.6,656.7z M1118.4,652.9l-0.3-0.8c1.6-0.6,3.2-1.3,4.9-2l0.3,0.8
					C1121.7,651.6,1120,652.3,1118.4,652.9z M1128.1,648.9l-0.3-0.8c1.6-0.7,3.2-1.4,4.8-2.1l0.4,0.8
					C1131.4,647.5,1129.8,648.2,1128.1,648.9z M1137.7,644.6l-0.4-0.8c1.7-0.8,3.3-1.6,4.7-2.3l0.4,0.8
					C1141,643,1139.4,643.8,1137.7,644.6z"/>
			</g>
			<g id="XMLID_194_">
				<path id="XMLID_204_" class="st34" d="M1141.4,704.6c-1.9-0.1-3.7-0.4-5.2-0.9l0.2-0.8c1.5,0.4,3.2,0.7,5.1,0.8L1141.4,704.6z
					 M1146.7,704.5l-0.1-0.9c1.6-0.1,3.4-0.4,5.1-0.7l0.2,0.9C1150.1,704.1,1148.4,704.3,1146.7,704.5z M1157.1,702.5l-0.2-0.8
					c1.7-0.5,3.3-1,4.9-1.6l0.3,0.8C1160.4,701.5,1158.7,702,1157.1,702.5z M1131.4,701.3c-1.1-0.9-2.1-1.9-2.8-3.1l-0.6-1l0.8-0.4
					l0.6,1c0.6,1.1,1.5,2.1,2.5,2.9L1131.4,701.3z M1166.9,698.8l-0.4-0.8c1.6-0.8,3.2-1.6,4.5-2.5l0.5,0.7
					C1170.1,697.1,1168.6,698,1166.9,698.8z M1175.8,693l-0.6-0.6c0.9-0.8,1.5-1.6,2.1-2.3c0.3-0.5,0.6-1,0.8-1.7l0.8,0.3
					c-0.2,0.8-0.5,1.4-0.9,1.9C1177.4,691.4,1176.7,692.2,1175.8,693z M1125.5,692.5c-0.9-1.6-1.7-3.2-2.4-4.6l0.8-0.4
					c0.7,1.5,1.5,3,2.4,4.6L1125.5,692.5z M1179.5,683.3h-0.9c0-1.5-0.1-3.3-0.3-5.2l0.9-0.1C1179.3,680,1179.5,681.8,1179.5,683.3z
					 M1120.8,683.1c-1.1-2.4-1.4-3.6-1.5-3.8l0.4-0.6l0.5,0.3c0,0.1,0.4,1.3,1.4,3.7L1120.8,683.1z M1177.5,673
					c-0.3-1.6-0.6-3.3-1-5.1l0.9-0.2c0.4,1.8,0.7,3.6,1,5.2L1177.5,673z M1175.4,662.7c-0.4-1.6-0.8-3.3-1.3-5.1l0.8-0.2
					c0.5,1.8,0.9,3.5,1.3,5.1L1175.4,662.7z M1172.7,652.6c-0.5-1.7-1-3.4-1.5-5l0.8-0.3c0.5,1.6,1,3.3,1.5,5L1172.7,652.6z
					 M1169.7,642.6c-0.6-1.8-1.1-3.4-1.6-5l0.8-0.3c0.5,1.5,1,3.2,1.6,5L1169.7,642.6z M1166.5,632.6c-1.1-3.1-1.7-5-1.7-5l0.8-0.3
					c0,0,0.7,1.9,1.7,5L1166.5,632.6z"/>
			</g>
		</g>
	</g>
</g>
</svg>
